<svg id="Layer_1" data-name="Layer 1" xmlns="http://www.w3.org/2000/svg" width="1002.5" height="219" viewBox="0 0 1002.5 219">
  <defs>
    <style>
      .cls-1 {
        fill: #fff;
      }
    </style>
  </defs>
  <title>Artboard 1 copy 2</title>
  <g>
    <path class="cls-1" d="M356,116.23q-15.39,0-25.76-10.36T319.93,80q0-15.49,10.26-25.76Q340.47,43.81,356,43.8q15.69,0,25.47,11.33L375,61.33a23.67,23.67,0,0,0-19.08-9,26.18,26.18,0,0,0-19.27,7.74Q329,67.72,329,80t7.65,20A26.18,26.18,0,0,0,356,107.71q12.1,0,21-10.16l6.49,6.29a33.61,33.61,0,0,1-12.1,9.15A37,37,0,0,1,356,116.23Z"/>
    <path class="cls-1" d="M465.66,80q0,15.39-10.26,25.76a36,36,0,0,1-50.74,0Q394.39,95.42,394.39,80t10.27-25.76a35.88,35.88,0,0,1,50.74.1Q465.66,64.73,465.66,80ZM403.5,80q0,12,7.55,19.85a25.43,25.43,0,0,0,19,7.84,25.13,25.13,0,0,0,18.88-7.84q7.65-7.74,7.65-19.85t-7.65-19.85A25.13,25.13,0,0,0,430,52.33a25.43,25.43,0,0,0-19,7.84Q403.49,68,403.5,80Z"/>
    <path class="cls-1" d="M490,114.69h-8.9V45.35h23.62a21.61,21.61,0,0,1,15.35,6,19.9,19.9,0,0,1,1.65,27.4,20.84,20.84,0,0,1-11.86,7.12l-.2.29,19.46,28.18v.39H518.53L499.84,86.6H490Zm0-60.81v24.4H504.3a13,13,0,0,0,9.2-3.54A11.53,11.53,0,0,0,517.27,66a12.23,12.23,0,0,0-12.39-12.1Z"/>
    <path class="cls-1" d="M582.34,45.35v8.53H550.77v22h28.47v8.32H550.77v22h31.57v8.53H541.87V45.35Z"/>
    <path class="cls-1" d="M665.23,96.19a18,18,0,0,1-6.69,14.62,25.46,25.46,0,0,1-16.46,5.42,24.32,24.32,0,0,1-15.2-5,25.75,25.75,0,0,1-9.1-13.75L626.3,94a22.09,22.09,0,0,0,2.42,5.62,18.21,18.21,0,0,0,3.63,4.31,16.63,16.63,0,0,0,4.6,2.81,14.23,14.23,0,0,0,5.33,1,15.35,15.35,0,0,0,10-3.14,10.26,10.26,0,0,0,3.87-8.38,10,10,0,0,0-3.19-7.46q-3-3-11.23-5.81-8.34-3-10.37-4.06-11-5.62-11-16.56a16.86,16.86,0,0,1,6.1-13.07,22.25,22.25,0,0,1,15.2-5.43,23.38,23.38,0,0,1,13.75,4.07,19.1,19.1,0,0,1,7.75,10l-8.33,3.48a12.36,12.36,0,0,0-4.6-6.44,14.91,14.91,0,0,0-17.19.34,8.45,8.45,0,0,0-3.58,7.07,8.18,8.18,0,0,0,2.81,6.2q3.09,2.61,13.46,6.19,10.55,3.59,15.05,8.77A18.69,18.69,0,0,1,665.23,96.19Z"/>
    <path class="cls-1" d="M721.29,45.35v8.53H689.72v22h28.47v8.32H689.72v22h31.57v8.53H680.82V45.35Z"/>
    <path class="cls-1" d="M742.21,114.69h-9.88l26.14-69.34h10.07l26.15,69.34h-9.88L778.13,95.9H749Zm21.1-58.39L752,87.57h23L763.7,56.3Z"/>
    <path class="cls-1" d="M816.57,114.69h-8.91V45.35h23.63a21.63,21.63,0,0,1,15.35,6,19.89,19.89,0,0,1,1.64,27.4,20.8,20.8,0,0,1-11.86,7.12l-.19.29,19.46,28.18v.39H845.14L826.45,86.6h-9.88Zm0-60.81v24.4H830.9a13,13,0,0,0,9.2-3.54A11.51,11.51,0,0,0,843.88,66a12.24,12.24,0,0,0-12.4-12.1Z"/>
    <path class="cls-1" d="M901.1,116.23q-15.39,0-25.75-10.36T865.08,80q0-15.49,10.27-25.76Q885.61,43.81,901.1,43.8q15.69,0,25.47,11.33l-6.39,6.2a23.67,23.67,0,0,0-19.08-9,26.18,26.18,0,0,0-19.27,7.74q-7.65,7.65-7.65,19.95t7.65,20a26.18,26.18,0,0,0,19.27,7.74q12.1,0,21-10.16l6.48,6.29A33.52,33.52,0,0,1,916.5,113,37,37,0,0,1,901.1,116.23Z"/>
    <path class="cls-1" d="M952.81,114.69H943.9V45.35h8.91V75.08h34.67V45.35h8.9v69.34h-8.9V83.41H952.81Z"/>
  </g>
  <g>
    <path class="cls-1" d="M341,195.05a18.7,18.7,0,0,1-13.8-5.55,20.14,20.14,0,0,1,0-27.64,18.54,18.54,0,0,1,13.8-5.61,17.2,17.2,0,0,1,13.65,6.07l-3.43,3.32A12.69,12.69,0,0,0,341,160.82,14,14,0,0,0,330.7,165a16,16,0,0,0,0,21.37A14,14,0,0,0,341,190.49q6.5,0,11.26-5.45l3.47,3.38a18,18,0,0,1-6.48,4.9A19.75,19.75,0,0,1,341,195.05Z"/>
    <path class="cls-1" d="M402.75,157.08v4.57H385.84v11.77h15.25v4.46H385.84v11.78h16.91v4.56H381.07V157.08Z"/>
    <path class="cls-1" d="M433.67,194.22H428.9V157.08h5.81L452.76,186H453l-.21-7.16V157.08h4.77v37.14h-5l-18.88-30.29h-.21l.21,7.16Z"/>
    <path class="cls-1" d="M497.37,161.65v32.57H492.6V161.65H482.22v-4.57h25.52v4.57Z"/>
    <path class="cls-1" d="M537.21,194.22h-4.77V157.08h12.65a11.63,11.63,0,0,1,8.23,3.19A10.68,10.68,0,0,1,554.2,175a11.24,11.24,0,0,1-6.36,3.82l-.1.15L558.17,194v.2h-5.66l-10-15h-5.29Zm0-32.57v13.07h7.68a7,7,0,0,0,4.92-1.89,6.19,6.19,0,0,0,2-4.7,6.29,6.29,0,0,0-1.9-4.54,6.36,6.36,0,0,0-4.74-1.94Z"/>
    <path class="cls-1" d="M584.31,194.22H579l14-37.14h5.4l14,37.14h-5.29l-3.58-10.06H587.94ZM595.62,163l-6.07,16.75h12.34L595.83,163Z"/>
    <path class="cls-1" d="M657.35,194.22H636.49V157.08h4.78v32.58h16.08Z"/>
    <path class="cls-1" d="M734.85,157.08v4.57H717.93v11.77h15.26v4.46H717.93v11.78h16.92v4.56H713.16V157.08Z"/>
    <path class="cls-1" d="M773.91,195.05a13,13,0,0,1-10-4q-3.8-4-3.79-10.58V157.08h4.77v23.55a10.35,10.35,0,0,0,2.39,7.21,9.51,9.51,0,0,0,13.17,0,10.35,10.35,0,0,0,2.39-7.21V157.08h4.77v23.35q0,6.73-3.73,10.68A13.13,13.13,0,0,1,773.91,195.05Z"/>
    <path class="cls-1" d="M818.78,194.22H814V157.08h12.66a11.59,11.59,0,0,1,8.22,3.19,10.66,10.66,0,0,1,.89,14.68,11.24,11.24,0,0,1-6.36,3.82l-.1.15L839.73,194v.2h-5.65l-10-15h-5.29Zm0-32.57v13.07h7.67a7,7,0,0,0,4.93-1.89,6.19,6.19,0,0,0,2-4.7,6.56,6.56,0,0,0-6.64-6.48Z"/>
    <path class="cls-1" d="M900.06,175.65a18.81,18.81,0,0,1-5.5,13.8,19.29,19.29,0,0,1-27.18,0,20.05,20.05,0,0,1,0-27.59,19.21,19.21,0,0,1,27.18,0A18.74,18.74,0,0,1,900.06,175.65Zm-33.3,0a14.71,14.71,0,0,0,4,10.64,13.62,13.62,0,0,0,10.16,4.2,13.47,13.47,0,0,0,10.12-4.2,15.84,15.84,0,0,0,0-21.27,13.47,13.47,0,0,0-10.12-4.2,13.62,13.62,0,0,0-10.16,4.2A14.7,14.7,0,0,0,866.76,175.65Z"/>
    <path class="cls-1" d="M930.2,179.18v15h-4.77V157.08h12.66a11.46,11.46,0,0,1,8.19,3.22,10.72,10.72,0,0,1,0,15.72,11.4,11.4,0,0,1-8.19,3.16Zm0-17.53v13h8a6.3,6.3,0,0,0,4.72-1.92,6.24,6.24,0,0,0,1.92-4.57,6.17,6.17,0,0,0-1.92-4.51,6.23,6.23,0,0,0-4.72-2Z"/>
    <path class="cls-1" d="M996.08,157.08v4.57H979.17v11.77h15.25v4.46H979.17v11.78h16.91v4.56H974.4V157.08Z"/>
  </g>
  <g>
    <path class="cls-1" d="M184.76,105.05l-.75-1.32.72,1.23h0Z"/>
    <path class="cls-1" d="M243.21,110H189.54a3.38,3.38,0,0,1-2.93-1.7L184.77,105a.25.25,0,0,1,0-.07h0l-.72-1.23h0L162,65.52l-2.32-4a10,10,0,0,0-8.66-5H100.79a10,10,0,0,0-8.61,4.92l-1.69,2.91L70,99.84,67,105a10,10,0,0,0,0,9.91.36.36,0,0,1,0,.09l22.65,39.23,2.45,4.24a10,10,0,0,0,8.66,5H211.26a4,4,0,0,1,3.46,6l-24.36,42.2a10,10,0,0,1-8.67,5H70.07a10,10,0,0,1-8.66-5l-27.84-48.2h0L5.59,115a10,10,0,0,1,0-10l28-48.46L61.41,8.29a10,10,0,0,1,8.66-5H181.69a10,10,0,0,1,8.67,5L218.19,56.5l28,48.46,0,.05A3.36,3.36,0,0,1,243.21,110Z"/>
  </g>
</svg>
