<svg id="Layer_1" data-name="Layer 1" xmlns="http://www.w3.org/2000/svg" width="250.59" height="219" viewBox="0 0 250.59 219">
  <defs>
    <style>
      .cls-1 {
        fill: #fff;
      }
    </style>
  </defs>
  <title>Artboard 1 copy 2</title>
  <g>
    <path class="cls-1" d="M184.76,105.05l-.75-1.32.72,1.23h0Z"/>
    <path class="cls-1" d="M243.21,110H189.54a3.38,3.38,0,0,1-2.93-1.7L184.77,105a.25.25,0,0,1,0-.07h0l-.72-1.23h0L162,65.52l-2.32-4a10,10,0,0,0-8.66-5H100.79a10,10,0,0,0-8.61,4.92l-1.69,2.91L70,99.84,67,105a10,10,0,0,0,0,9.91.36.36,0,0,1,0,.09l22.65,39.23,2.45,4.24a10,10,0,0,0,8.66,5H211.26a4,4,0,0,1,3.46,6l-24.36,42.2a10,10,0,0,1-8.67,5H70.07a10,10,0,0,1-8.66-5l-27.84-48.2h0L5.59,115a10,10,0,0,1,0-10l28-48.46L61.41,8.29a10,10,0,0,1,8.66-5H181.69a10,10,0,0,1,8.67,5L218.19,56.5l28,48.46,0,.05A3.36,3.36,0,0,1,243.21,110Z"/>
  </g>
</svg>
