<?xml version="1.0" encoding="iso-8859-1"?>
<!-- Generator: Adobe Illustrator 18.0.0, SVG Export Plug-In . SVG Version: 6.00 Build 0)  -->
<!DOCTYPE svg PUBLIC "-//W3C//DTD SVG 1.1//EN" "http://www.w3.org/Graphics/SVG/1.1/DTD/svg11.dtd">
<svg version="1.1" id="Capa_1" xmlns="http://www.w3.org/2000/svg" xmlns:xlink="http://www.w3.org/1999/xlink" x="0px" y="0px"
	 viewBox="0 0 496.629 496.629" style="enable-background:new 0 0 496.629 496.629;" xml:space="preserve">
<g>
	<path d="M434.696,149.691c0.843,0,1.68-0.251,2.396-0.74c1.16-0.791,1.854-2.105,1.854-3.51V45.124
		c0-8.49-6.907-15.397-15.396-15.397H275.457C274.959,13.251,261.41,0,244.816,0h-2.636c-16.595,0-30.143,13.251-30.643,29.727
		H62.174c-8.49,0-15.397,6.907-15.397,15.397c0,2.321,1.861,4.212,4.183,4.25c42.086,0.67,129.986,30.939,146.801,36.864v29.169
		c0,4.642,3.776,8.419,8.419,8.419h5.335v342.14c0,16.909,13.757,30.666,30.666,30.666h2.636c16.909,0,30.666-13.756,30.666-30.666
		v-342.14h4.063c4.643,0,8.419-3.776,8.419-8.419v-10.098c84.575,20.517,144.575,43.852,145.184,44.09
		C433.647,149.594,434.172,149.691,434.696,149.691z M242.18,8.5h2.636c11.717,0,21.339,9.137,22.115,20.66h-46.866
		C220.841,17.637,230.463,8.5,242.18,8.5z M266.982,465.964c0,12.222-9.943,22.166-22.166,22.166h-2.636
		c-12.223,0-22.166-9.943-22.166-22.166V124.108h9.287v185.904c0,2.347,1.902,4.25,4.25,4.25c2.348,0,4.25-1.903,4.25-4.25V124.108
		h29.181V465.964z M284.698,95.781c-0.326-0.078-0.656-0.116-0.985-0.116c-0.946,0-1.876,0.316-2.634,0.914
		c-1.021,0.806-1.616,2.035-1.616,3.336v15.409H206.26V83.236c0-1.79-1.121-3.388-2.805-3.997
		c-4.09-1.479-97.279-34.999-146.879-38.142c1.254-1.738,3.296-2.871,5.598-2.871h361.375c3.803,0,6.896,3.094,6.896,6.896v6.917
		h-200.27c-2.348,0-4.25,1.903-4.25,4.25c0,2.347,1.902,4.25,4.25,4.25h200.27v78.755
		C412.934,132.815,357.326,113.088,284.698,95.781z"/>
	<path d="M233.551,365.94c-2.348,0-4.25,1.903-4.25,4.25v62.089c0,2.347,1.902,4.25,4.25,4.25c2.348,0,4.25-1.903,4.25-4.25V370.19
		C237.801,367.843,235.899,365.94,233.551,365.94z"/>
	<path d="M445.603,287.827h-59.997c-2.348,0-4.25,1.903-4.25,4.25v15.397l-20.124,6.712c-1.069,0.357-1.953,1.124-2.457,2.132
		c-0.504,1.008-0.587,2.175-0.229,3.245l18.668,55.969c0.357,1.069,1.123,1.953,2.131,2.457c0.596,0.297,1.247,0.448,1.9,0.448
		c0.453,0,0.907-0.072,1.345-0.218l49.328-16.453c1.069-0.357,1.953-1.123,2.457-2.132s0.587-2.175,0.229-3.245l-0.021-0.064h11.021
		c2.348,0,4.25-1.903,4.25-4.25v-59.997C449.853,289.729,447.95,287.827,445.603,287.827z M441.353,347.824h-12.668
		c-1.366,0-2.649,0.657-3.448,1.765c-0.799,1.109-1.016,2.534-0.583,3.83l0.543,1.628l-41.266,13.764l-15.979-47.905l18.998-6.336
		c1.735-0.579,2.905-2.203,2.905-4.032v-14.21h51.497V347.824z"/>
	<path d="M391.824,410.355v-13.88c0-2.347-1.902-4.25-4.25-4.25h-50c-2.348,0-4.25,1.903-4.25,4.25v51c0,2.347,1.902,4.25,4.25,4.25
		h5.596l35.723,33.899c0.822,0.78,1.875,1.167,2.925,1.167c1.125,0,2.248-0.444,3.084-1.325l37.859-39.896
		c0.775-0.817,1.195-1.91,1.165-3.037c-0.029-1.127-0.505-2.196-1.322-2.972L391.824,410.355z M381.661,476.533l-33.87-32.141
		c-0.79-0.749-1.837-1.167-2.926-1.167h-3.041v-42.5h41.5v11.456c0,1.166,0.479,2.28,1.324,3.083l29.02,27.538L381.661,476.533z"/>
</g>
<g>
</g>
<g>
</g>
<g>
</g>
<g>
</g>
<g>
</g>
<g>
</g>
<g>
</g>
<g>
</g>
<g>
</g>
<g>
</g>
<g>
</g>
<g>
</g>
<g>
</g>
<g>
</g>
<g>
</g>
</svg>
