<?xml version="1.0" encoding="iso-8859-1"?>
<!-- Generator: Adobe Illustrator 19.0.0, SVG Export Plug-In . SVG Version: 6.00 Build 0)  -->
<svg version="1.1" id="Layer_1" xmlns="http://www.w3.org/2000/svg" xmlns:xlink="http://www.w3.org/1999/xlink" x="0px" y="0px"
	 viewBox="0 0 512 512" style="enable-background:new 0 0 512 512;" xml:space="preserve">
<path style="fill:#FF4719;" d="M508.5,152.261l-69.677,256.821H73.177L3.5,152.261c2.206-2.239,5.255-3.635,8.631-3.635H499.87
	C503.245,148.626,506.295,150.022,508.5,152.261z"/>
<polygon style="fill:#B7D9DD;" points="440.984,0 440.984,173.832 378.711,260.726 407.226,0 "/>
<polygon style="fill:#88ACB5;" points="440.984,173.832 440.984,443.91 373.467,443.91 389.964,226.968 "/>
<polygon style="fill:#C7E7EB;" points="71.016,0 71.016,173.832 256,400.26 407.226,208.997 407.226,0 "/>
<polygon style="fill:#B7D9DD;" points="256,366.502 122.036,226.968 71.016,173.832 71.016,443.91 407.226,443.91 407.226,208.997 
	"/>
<path style="fill:#FFBE35;" d="M512,160.757V499.87c0,3.297-1.339,6.313-3.5,8.496l-53.586-9.869l22.505-313.862l31.08-32.374
	C510.661,154.444,512,157.46,512,160.757z"/>
<polygon style="fill:#FFCD60;" points="477.42,184.635 477.42,498.497 337.549,330.313 "/>
<path style="fill:#F3A933;" d="M477.42,475.991L465.29,512h34.58c3.376,0,6.425-1.395,8.631-3.635L477.42,475.991z"/>
<path style="fill:#FFCD60;" d="M174.451,330.313L3.5,152.261c-2.161,2.183-3.5,5.199-3.5,8.496V499.87
	c0,3.297,1.339,6.313,3.5,8.496l75.27-9.013L174.451,330.313z"/>
<path style="fill:#FFBE35;" d="M337.549,330.313l-65.964,68.698c-8.575,8.923-22.596,8.923-31.17,0l-65.964-68.698L3.5,508.365
	C5.705,510.605,8.755,512,12.13,512H465.29c3.376,0,6.425-1.395,8.631-3.635c2.161-2.183,3.5-5.199,3.5-8.496v-23.878
	L337.549,330.313z"/>
<g>
	<path style="fill:#111449;" d="M337.774,118.761c9.902,0,17.926,8.034,17.926,17.937s-8.023,17.926-17.926,17.926h-7.337
		l-37.202,22.505l22.505-58.368C315.741,118.762,337.774,118.762,337.774,118.761z"/>
	<path style="fill:#111449;" d="M330.437,154.624c9.891,0,17.926,8.023,17.926,17.926s-8.034,17.926-17.926,17.926h-7.348
		l-29.854,22.505v-58.357L330.437,154.624L330.437,154.624z"/>
	<path style="fill:#111449;" d="M315.741,226.338c9.902,0,17.937,8.023,17.937,17.926c0,9.902-8.034,17.926-17.937,17.926
		l-22.505-17.926L315.741,226.338z"/>
	<path style="fill:#111449;" d="M323.089,190.475c9.902,0,17.926,8.034,17.926,17.926c0,9.902-8.023,17.937-17.926,17.937h-29.854
		v-35.863L323.089,190.475L323.089,190.475z"/>
</g>
<path style="fill:#27467A;" d="M275.614,118.773c12.142-18.635,18.151-42.603,18.151-67.089c0-9.902-8.023-17.926-17.926-17.926
	s-17.926,8.023-17.926,17.926c0,37.055-30.034,67.078-67.089,67.078l-22.505,71.714l22.505,71.714h124.917V118.761L275.614,118.773z
	"/>
<rect x="156.301" y="118.773" style="fill:#88ACB5;" width="34.523" height="143.416"/>
<g>
</g>
<g>
</g>
<g>
</g>
<g>
</g>
<g>
</g>
<g>
</g>
<g>
</g>
<g>
</g>
<g>
</g>
<g>
</g>
<g>
</g>
<g>
</g>
<g>
</g>
<g>
</g>
<g>
</g>
</svg>
