<?xml version="1.0" encoding="iso-8859-1"?>
<!-- Generator: Adobe Illustrator 19.0.0, SVG Export Plug-In . SVG Version: 6.00 Build 0)  -->
<svg xmlns="http://www.w3.org/2000/svg" xmlns:xlink="http://www.w3.org/1999/xlink" version="1.1" id="Capa_1" x="0px" y="0px" viewBox="0 0 511.999 511.999" style="enable-background:new 0 0 511.999 511.999;" xml:space="preserve" width="512px" height="512px">
<g>
	<g>
		<path d="M440.555,134.332h-10.959c5.391-6.832,8.901-14.408,10.475-22.691c0.19-0.998,0.339-1.997,0.469-2.995    c0.017-0.129,0.034-0.257,0.046-0.388c3.079-24.986-11.869-49.675-25.313-66.289c-9.168-11.328-21.882-16.807-36.767-15.862    c-38.949,2.491-83.278,47.382-99.675,70.545h-45.659c-16.396-23.163-60.725-68.054-99.675-70.545    c-14.881-0.95-27.598,4.533-36.767,15.863c-13.442,16.612-28.387,41.295-25.313,66.276c0.012,0.143,0.031,0.282,0.05,0.423    c0.13,0.99,0.279,1.981,0.467,2.973c1.573,8.283,5.084,15.859,10.474,22.69H71.445C32.05,134.332,0,166.383,0,205.778v208.775    c0,39.396,32.05,71.445,71.445,71.445h369.109c39.395,0,71.445-32.05,71.445-71.445V205.778    C512,166.383,479.95,134.332,440.555,134.332z M420.61,106.726c-0.06,0.395-0.114,0.79-0.189,1.183    c-1.962,10.33-8.89,18.991-21.139,26.423h-74.02c76.76-37.699,92.727-30.912,94.463-29.877    C420.029,104.636,420.514,104.941,420.61,106.726z M294.176,109.588c15.079-22.591,56.596-61.666,85.605-63.522    c8.485-0.551,14.82,2.153,19.944,8.484c5.522,6.824,13.064,17.411,17.526,28.978c-13.206-1.145-32.076,3.314-57.87,13.563    c-18.534,7.364-40.423,17.643-65.205,30.601V109.588z M237.824,116.651L237.824,116.651h36.352v17.681h-36.352V116.651z     M112.277,54.551c5.122-6.331,11.465-9.034,19.943-8.484c29.009,1.854,70.526,40.931,85.605,63.521v18.104    c-24.781-12.958-46.67-23.235-65.204-30.601c-25.793-10.249-44.663-14.71-57.869-13.564    C99.214,71.962,106.755,61.374,112.277,54.551z M92.276,104.455c1.735-1.034,17.702-7.82,94.461,29.877h-74.018    c-12.248-7.432-19.176-16.093-21.138-26.422c-0.075-0.395-0.13-0.792-0.189-1.188C91.488,104.942,91.972,104.636,92.276,104.455z     M187.507,422.811h-69.54c-5.523,0-10,4.478-10,10c0,5.522,4.477,10,10,10h69.54v23.188H71.445    C43.078,465.999,20,442.921,20,414.554V205.778c0-28.367,23.078-51.446,51.445-51.446h116.062V422.811z M304.492,465.999h-96.985    V154.332h96.985V465.999z M492,414.554c0,28.367-23.078,51.445-51.445,51.445H324.492v-268.48h69.541c5.523,0,10-4.478,10-10    c0-5.522-4.477-10-10-10h-69.541v-23.187h116.063c28.367,0,51.445,23.079,51.445,51.446V414.554z" fill="#4285f4"/>
	</g>
</g>
<g>
	<g>
		<path d="M425.016,177.523h-0.255c-5.523,0-10,4.477-10,10c0,5.522,4.477,10,10,10h0.255c5.523,0,10-4.478,10-10    C435.016,182,430.539,177.523,425.016,177.523z" fill="#4285f4"/>
	</g>
</g>
<g>
	<g>
		<path d="M87.238,422.808h-0.254c-5.523,0-10,4.478-10,10c0,5.522,4.477,10,10,10h0.254c5.523,0,10-4.478,10-10    C97.238,427.285,92.761,422.808,87.238,422.808z" fill="#4285f4"/>
	</g>
</g>
<g>
</g>
<g>
</g>
<g>
</g>
<g>
</g>
<g>
</g>
<g>
</g>
<g>
</g>
<g>
</g>
<g>
</g>
<g>
</g>
<g>
</g>
<g>
</g>
<g>
</g>
<g>
</g>
<g>
</g>
</svg>
