<?xml version="1.0" encoding="utf-8"?>
<!-- Generator: Adobe Illustrator 21.1.0, SVG Export Plug-In . SVG Version: 6.00 Build 0)  -->
<svg version="1.1" id="GoogleG_x5F_FullColor_x5F_rgb_32_"
	 xmlns="http://www.w3.org/2000/svg" xmlns:xlink="http://www.w3.org/1999/xlink" x="0px" y="0px" viewBox="0 0 188 192"
	 style="enable-background:new 0 0 188 192;" xml:space="preserve">
<style type="text/css">
	.st0{fill:#4285F4;}
	.st1{fill:#34A853;}
	.st2{fill:#FABB05;}
	.st3{fill:#E94235;}
</style>
<g id="_x31_92px">
	<path class="st0" d="M188,98.2c0-7-0.6-13.7-1.8-20.2H96v37h51.9c-2.1,12.3-8.9,22.8-19.3,29.8v24h30.9
		C177.6,152.1,188,127.4,188,98.2z"/>
	<path class="st1" d="M128.6,144.8c-8.6,5.8-19.7,9.2-32.6,9.2c-25,0-46.3-16.9-53.9-39.6H10.2v24.8C26,170.5,58.5,192,96,192
		c25.9,0,47.7-8.5,63.6-23.2L128.6,144.8z"/>
	<path class="st2" d="M39.1,96c0-6.4,1.1-12.6,3-18.4V52.9H10.2C3.7,65.8,0,80.5,0,96s3.7,30.2,10.2,43.1l31.9-24.8
		C40.2,108.6,39.1,102.4,39.1,96z"/>
	<path class="st3" d="M96,38c14.2,0,26.8,4.9,36.8,14.4v0L160.2,25C143.6,9.5,121.9,0,96,0C58.5,0,26,21.5,10.2,52.9l31.9,24.7
		C49.7,54.9,71,38,96,38z"/>
</g>
</svg>
