<svg id="GoogleLogo_Reverse_rgb" xmlns="http://www.w3.org/2000/svg" width="830.01" height="270.6" viewBox="0 0 830.01 270.6">
  <defs>
    <style>
      .cls-1 {
        fill: #4484f4;
      }
    </style>
  </defs>
  <title>google_blue</title>
  <g id="_830x271px" data-name="830x271px">
    <path class="cls-1" d="M107,124.51V95.83h96a93.89,93.89,0,0,1,1.55,17.58c0,21.5-5.89,48.13-24.83,67.07-18.43,19.2-42,29.44-73.22,29.44C48.64,209.93,0,162.82,0,105S48.64,0,106.5,0c32,0,54.79,12.54,71.94,28.93L158.22,49.15c-12.29-11.52-28.93-20.48-51.71-20.48-42.24,0-75.27,34.05-75.27,76.29s33,76.29,75.27,76.29c27.39,0,43-11,53-21,8.14-8.13,13.49-19.8,15.57-35.76Z"/>
    <path class="cls-1" d="M350.84,142.34c0,38.91-30.46,67.59-67.84,67.59s-67.84-28.67-67.84-67.59c0-39.17,30.46-67.59,67.84-67.59S350.84,103.17,350.84,142.34Zm-29.69,0c0-24.32-17.66-41-38.14-41s-38.15,16.64-38.15,41c0,24.06,17.66,41,38.15,41S321.15,166.41,321.15,142.34Z"/>
    <path class="cls-1" d="M498.84,142.34c0,38.91-30.46,67.59-67.84,67.59s-67.84-28.67-67.84-67.59c0-39.17,30.46-67.59,67.84-67.59S498.84,103.17,498.84,142.34Zm-29.69,0c0-24.32-17.66-41-38.14-41s-38.15,16.64-38.15,41c0,24.06,17.66,41,38.15,41S469.15,166.41,469.15,142.34Z"/>
    <path class="cls-1" d="M640.7,78.85V200.2c0,49.92-29.44,70.4-64.26,70.4-32.77,0-52.48-22-59.91-39.94l25.86-10.75c4.61,11,15.87,24.07,34.05,24.07,22.27,0,36.1-13.83,36.1-39.68v-9.73h-1c-6.66,8.19-19.46,15.36-35.59,15.36-33.79,0-64.77-29.44-64.77-67.33,0-38.15,31-67.84,64.77-67.84,16.13,0,28.93,7.17,35.59,15.11h1v-11ZM614.59,142.6c0-23.81-15.87-41.22-36.1-41.22-20.48,0-37.63,17.41-37.63,41.22,0,23.55,17.15,40.71,37.63,40.71C598.71,183.3,614.59,166.15,614.59,142.6Z"/>
    <path class="cls-1" d="M691,7.83v198H661.3V7.83Z"/>
    <path class="cls-1" d="M805.68,164.62l23,15.36c-7.43,11-25.35,30-56.32,30-38.4,0-67.07-29.7-67.07-67.59,0-40.2,28.93-67.59,63.75-67.59,35.07,0,52.23,27.91,57.86,43l3.07,7.68-90.37,37.38c6.91,13.57,17.67,20.48,32.77,20.48S798,175.88,805.68,164.62Zm-70.92-24.33,60.42-25.09c-3.33-8.45-13.31-14.34-25.09-14.34C755,100.87,734,114.18,734.76,140.29Z"/>
  </g>
</svg>
