<?xml version="1.0" encoding="utf-8"?>
<!-- Generator: Adobe Illustrator 21.1.0, SVG Export Plug-In . SVG Version: 6.00 Build 0)  -->
<svg version="1.1" id="GoogleG_x5F_OneColor_x5F_rgb_31_"
	 xmlns="http://www.w3.org/2000/svg" xmlns:xlink="http://www.w3.org/1999/xlink" x="0px" y="0px" viewBox="0 0 188 192"
	 style="enable-background:new 0 0 188 192;" xml:space="preserve">
<style type="text/css">
	.st0{fill:#FFFFFF;}
</style>
<g id="_x31_92px">
	<path id="_x3C_Path_x3E__31_" class="st0" d="M96,115h51.9c-3.9,22.5-23.3,39-51.9,39c-31.4,0-56.9-26.6-56.9-58S64.6,38,96,38
		c14.2,0,26.8,4.9,36.8,14.4v0L160.2,25C143.6,9.5,121.9,0,96,0C43,0,0,43,0,96s43,96,96,96c55.4,0,92-39,92-93.8
		c0-7-0.6-13.7-1.8-20.2H96V115z"/>
</g>
</svg>
