<?xml version="1.0" encoding="iso-8859-1"?>
<!-- Generator: Adobe Illustrator 19.0.0, SVG Export Plug-In . SVG Version: 6.00 Build 0)  -->
<svg version="1.1" id="Capa_1" xmlns="http://www.w3.org/2000/svg" xmlns:xlink="http://www.w3.org/1999/xlink" x="0px" y="0px"
	 viewBox="0 0 504.9 504.9" style="enable-background:new 0 0 504.9 504.9;" xml:space="preserve">
<path style="fill:#292F33;" d="M448.416,193c-25.2-108.1-89.4-193-196-193c-106.7,0-170.9,84.9-196,193
	c-19.4-16.9-56.4,1.7-45.7,44.2c9.1,36.2,23.9,55.1,33.4,64.1c0,1.1,0,2.2,0,3.3c-0.1,154.8,66.7,200.3,208.3,200.3
	s208.4-45.5,208.4-200.4c0-1.1,0-2.2,0-3.3c9.6-9,24.4-27.9,33.4-64.1C504.816,194.7,467.816,176,448.416,193z M44.716,211.1
	c-5.9-18.1-23.9-10.2-19-15.4c15.9-17.4,51.2,18.8,31.2,36.2C44.716,242.5,49.016,224.5,44.716,211.1z M252.416,490.7
	c-11.9,0-206.2-8.8-136.1-168.1c-21.2-63.4-29.7-104,6.3-104h259.5c36,0,27.5,40.6,6.3,104
	C455.816,475.6,264.316,490.7,252.416,490.7z M460.116,211.1c-4.4,13.4,0,31.4-12.2,20.7c-19.9-17.4,15.3-53.6,31.2-36.2
	C484.016,201,466.016,193,460.116,211.1z"/>
<path style="fill:#66757F;" d="M382.216,218.5h-259.6c-36,0-27.5,40.6-6.3,104c-70.1,159.3,124.2,168.2,136.1,168.2
	c11.9,0,203.4-15.1,136.1-168.1C409.716,259.1,418.216,218.5,382.216,218.5z M323.516,237.2c15.7,0,28.4-1.5,28.4,14.2
	s-12.7,28.4-28.4,28.4c-15.7,0-28.4-12.7-28.4-28.4C295.116,235.7,307.816,237.2,323.516,237.2z M252.416,306.5c0,0,15-15.6,43-11.9
	c44.9,5.9,46.7,46.7,27.6,44.2c-10.9-1.5-1.9-13.3-24.4-22.1c-22.5-8.8-46.2,9.4-46.2,9.4s-23.7-18.1-46.2-9.4
	c-22.4,8.8-13.5,20.7-24.4,22.1c-19.1,2.6-17.3-38.2,27.6-44.2C237.416,290.9,252.416,306.5,252.416,306.5z M307.216,331.8
	c0,7.9-9.1,14.2-20.3,14.2c-11.2,0-20.3-6.4-20.3-14.2c0-7.9,9.1-14.2,20.3-14.2C298.216,317.6,307.216,324,307.216,331.8z
	 M238.216,331.8c0,7.9-9.1,14.2-20.3,14.2s-20.3-6.4-20.3-14.2c0-7.9,9.1-14.2,20.3-14.2C229.116,317.6,238.216,324,238.216,331.8z
	 M181.316,237.2c15.7,0,28.4-1.5,28.4,14.2s-12.7,28.4-28.4,28.4s-28.4-12.7-28.4-28.4C152.816,235.7,165.616,237.2,181.316,237.2z
	 M349.616,422.4c-17.2,4.6-45.6,8.5-97.2,8.5s-80-3.9-97.2-8.5c-45.6-12.1-27.3-24.7,0-21s51.6,5.9,97.2,5.9s69.9-2.2,97.2-5.9
	C377.016,397.7,395.216,410.2,349.616,422.4z"/>
<g>
	<path style="fill:#292F33;" d="M181.316,279.9c15.7,0,28.4-12.7,28.4-28.4c0-15.7-12.7-14.2-28.4-14.2s-28.4-1.5-28.4,14.2
		C152.816,267.2,165.616,279.9,181.316,279.9z"/>
	<path style="fill:#292F33;" d="M323.516,279.9c15.7,0,28.4-12.7,28.4-28.4c0-15.7-12.7-14.2-28.4-14.2c-15.7,0-28.4-1.5-28.4,14.2
		C295.116,267.2,307.816,279.9,323.516,279.9z"/>
	<path style="fill:#292F33;" d="M197.616,331.8c0,7.9,9.1,14.2,20.3,14.2s20.3-6.4,20.3-14.2c0-7.9-9.1-14.2-20.3-14.2
		C206.616,317.6,197.616,324,197.616,331.8z"/>
	<path style="fill:#292F33;" d="M266.616,331.8c0,7.9,9.1,14.2,20.3,14.2c11.2,0,20.3-6.4,20.3-14.2c0-7.9-9.1-14.2-20.3-14.2
		C275.716,317.6,266.616,324,266.616,331.8z"/>
</g>
<path style="fill:#99AAB5;" d="M181.916,338.8c10.9-1.5,1.9-13.3,24.4-22.1c22.5-8.8,46.2,9.4,46.2,9.4s23.7-18.1,46.2-9.4
	c22.5,8.8,13.5,20.7,24.4,22.1c19.1,2.6,17.3-38.2-27.6-44.2c-27.9-3.7-43,11.9-43,11.9s-15-15.6-43-11.9
	C164.616,300.6,162.716,341.4,181.916,338.8z"/>
<path style="fill:#292F33;" d="M349.616,401.4c-27.3,3.7-51.6,5.9-97.2,5.9s-69.9-2.2-97.2-5.9s-45.6,8.9,0,21
	c17.2,4.6,45.6,8.5,97.2,8.5s80-3.9,97.2-8.5C395.216,410.2,377.016,397.7,349.616,401.4z"/>
<g>
	<path style="fill:#66757F;" d="M56.916,231.8c20-17.4-15.3-53.6-31.2-36.2c-4.8,5.3,13.1-2.7,19,15.4
		C49.016,224.5,44.716,242.5,56.916,231.8z"/>
	<path style="fill:#66757F;" d="M447.916,231.8c12.2,10.7,7.9-7.3,12.2-20.7c5.9-18.1,23.9-10.2,19-15.4
		C463.216,178.3,428.016,214.4,447.916,231.8z"/>
</g>
<g>
</g>
<g>
</g>
<g>
</g>
<g>
</g>
<g>
</g>
<g>
</g>
<g>
</g>
<g>
</g>
<g>
</g>
<g>
</g>
<g>
</g>
<g>
</g>
<g>
</g>
<g>
</g>
<g>
</g>
</svg>
