<svg id="Layer_1" data-name="Layer 1" xmlns="http://www.w3.org/2000/svg" viewBox="0 0 1014.53 212.84">
  <defs>
    <style>
      .cls-1, .cls-2, .cls-3, .cls-4, .cls-5 {
        fill: #fff;
      }

      .cls-2 {
        font-size: 51.87px;
        font-family: ProductSans-Regular, Product Sans;
        letter-spacing: 0.38em;
      }

      .cls-3 {
        opacity: 0.35;
      }

      .cls-4 {
        opacity: 0.8;
      }

      .cls-5 {
        opacity: 0.2;
      }
    </style>
  </defs>
  <title>logo_core_search_final_white</title>
  <g>
    <path class="cls-1" d="M371.72,136.69q-15.39,0-25.75-10.36T335.7,100.48Q335.7,85,346,74.72q10.26-10.45,25.75-10.45,15.69,0,25.47,11.33l-6.39,6.19a23.67,23.67,0,0,0-19.08-9,26.18,26.18,0,0,0-19.27,7.74q-7.65,7.65-7.65,20t7.65,20a26.18,26.18,0,0,0,19.27,7.74q12.11,0,21-10.16l6.48,6.29a33.52,33.52,0,0,1-12.1,9.15A37,37,0,0,1,371.72,136.69Z" transform="translate(-19.73 -19.45)"/>
    <path class="cls-1" d="M481.43,100.48q0,15.39-10.26,25.76a36,36,0,0,1-50.74,0q-10.26-10.36-10.26-25.76t10.26-25.76a35.9,35.9,0,0,1,50.74.1Q481.43,85.19,481.43,100.48Zm-62.16,0q0,12,7.55,19.85a25.44,25.44,0,0,0,19,7.84,25.12,25.12,0,0,0,18.88-7.84q7.65-7.74,7.65-19.85t-7.65-19.85a25.12,25.12,0,0,0-18.88-7.84,25.44,25.44,0,0,0-19,7.84Q419.26,88.48,419.27,100.48Z" transform="translate(-19.73 -19.45)"/>
    <path class="cls-1" d="M505.74,135.15h-8.91V65.81h23.63a21.61,21.61,0,0,1,15.34,6,19.88,19.88,0,0,1,1.65,27.4,20.84,20.84,0,0,1-11.86,7.12l-.2.29,19.47,28.18v.39H534.3l-18.69-28.09h-9.87Zm0-60.81v24.4h14.33a13,13,0,0,0,9.2-3.54A11.52,11.52,0,0,0,533,86.44a12.23,12.23,0,0,0-12.39-12.1Z" transform="translate(-19.73 -19.45)"/>
    <path class="cls-1" d="M598.11,65.81v8.53H566.54v22H595v8.32H566.54v22h31.57v8.53H557.64V65.81Z" transform="translate(-19.73 -19.45)"/>
    <path class="cls-1" d="M681,116.65a18,18,0,0,1-6.68,14.62,25.5,25.5,0,0,1-16.46,5.42,24.33,24.33,0,0,1-15.21-5,25.75,25.75,0,0,1-9.1-13.75l8.52-3.49a22.09,22.09,0,0,0,2.42,5.62,18,18,0,0,0,3.63,4.31,16.63,16.63,0,0,0,4.6,2.81,14.27,14.27,0,0,0,5.33,1A15.28,15.28,0,0,0,668,125a10.26,10.26,0,0,0,3.88-8.38,10,10,0,0,0-3.2-7.46q-3-3-11.23-5.8-8.33-3-10.36-4.07-11-5.61-11-16.56a16.86,16.86,0,0,1,6.1-13.07,22.24,22.24,0,0,1,15.2-5.42,23.37,23.37,0,0,1,13.75,4.06,19.05,19.05,0,0,1,7.75,10l-8.33,3.48a12.3,12.3,0,0,0-4.6-6.44,14.91,14.91,0,0,0-17.19.34,8.45,8.45,0,0,0-3.58,7.07A8.22,8.22,0,0,0,648,89q3.09,2.61,13.46,6.19,10.54,3.59,15.06,8.77A18.73,18.73,0,0,1,681,116.65Z" transform="translate(-19.73 -19.45)"/>
    <path class="cls-1" d="M737.06,65.81v8.53H705.5v22H734v8.32H705.5v22h31.56v8.53H696.59V65.81Z" transform="translate(-19.73 -19.45)"/>
    <path class="cls-1" d="M758,135.15H748.1l26.15-69.34h10.07l26.14,69.34h-9.88l-6.68-18.79H764.76Zm21.11-58.39L767.76,108h23L779.47,76.76Z" transform="translate(-19.73 -19.45)"/>
    <path class="cls-1" d="M832.34,135.15h-8.91V65.81h23.63a21.61,21.61,0,0,1,15.35,6,19.9,19.9,0,0,1,1.65,27.4,20.86,20.86,0,0,1-11.87,7.12l-.19.29,19.46,28.18v.39H860.91l-18.69-28.09h-9.88Zm0-60.81v24.4h14.33a12.94,12.94,0,0,0,9.2-3.54,11.49,11.49,0,0,0,3.78-8.76,12.23,12.23,0,0,0-12.4-12.1Z" transform="translate(-19.73 -19.45)"/>
    <path class="cls-1" d="M916.88,136.69q-15.4,0-25.76-10.36t-10.27-25.85q0-15.49,10.27-25.76,10.26-10.45,25.76-10.45,15.68,0,25.46,11.33L936,81.79a23.67,23.67,0,0,0-19.07-9,26.15,26.15,0,0,0-19.27,7.74q-7.65,7.65-7.65,20t7.65,20a26.15,26.15,0,0,0,19.27,7.74q12.09,0,21-10.16l6.49,6.29a33.64,33.64,0,0,1-12.11,9.15A36.94,36.94,0,0,1,916.88,136.69Z" transform="translate(-19.73 -19.45)"/>
    <path class="cls-1" d="M968.58,135.15h-8.91V65.81h8.91V95.54h34.67V65.81h8.91v69.34h-8.91V103.87H968.58Z" transform="translate(-19.73 -19.45)"/>
  </g>
  <text class="cls-2" transform="translate(315.85 195.23)">CENTRAL EUROPE</text>
  <path class="cls-3" d="M110.24,72.85" transform="translate(-19.73 -19.45)"/>
  <line class="cls-1" x1="90.5" y1="53.4" x2="90.5" y2="53.4"/>
  <path class="cls-4" d="M121.89,72.8" transform="translate(-19.73 -19.45)"/>
  <polygon class="cls-1" points="30.01 160.26 29.66 160.32 29.87 160.26 30.01 160.26"/>
  <path class="cls-1" d="M103.87,170" transform="translate(-19.73 -19.45)"/>
  <polygon class="cls-1" points="30.01 160.26 29.66 160.32 29.87 160.26 30.01 160.26"/>
  <line class="cls-1" x1="59.8" y1="105.18" x2="59.61" y2="105.53"/>
  <path class="cls-1" d="M81.59,232.29a4.64,4.64,0,0,1-4-2.38L49.39,179.78l.35-.07H49.6l-.21.07-28.6-51c-1.24-2.44-1.59-4,0-6.74L50.38,70.2l0,0L77.86,22.07a5.11,5.11,0,0,1,4.44-2.58h58.6l0,0,55.24.16c4.2,0,5.69.41,8.39,4.48l28.63,48.76,28,47.53a3.42,3.42,0,0,1-2.94,5.16H206.71a8.54,8.54,0,0,1-7.35-4.21l-21.2-37.17-6.45-11.31H109.76L85,115.32l-3.7,6.36-1.49,2.51-.22.4,0,0v0L104,170l5.24,9.72-13.65,0,75.77,0,55.63,0a3.39,3.39,0,0,1,2.92,5.15l-26.82,44.56c-1.15,2.11-3.78,2.85-5.41,2.85" transform="translate(-19.73 -19.45)"/>
  <path class="cls-1" d="M258.26,123.8" transform="translate(-19.73 -19.45)"/>
  <path class="cls-5" d="M85,115.37v0c-.14.22-.31.51-.5.83s-.35.58-.54.9a4,4,0,0,1-.22.38c-.21.36-.43.74-.66,1.1-.6,1-1.24,2.09-1.83,3.08l3.7-6.36Z" transform="translate(-19.73 -19.45)"/>
</svg>
