<svg xmlns="http://www.w3.org/2000/svg" xmlns:xlink="http://www.w3.org/1999/xlink" xmlns:fi="http://pattern.flaticon.com/" x="0" y="0" width="700" height="350" viewBox="0 0 700 350"><rect x="0px" y="0px" width="100%" height="100%" opacity="0" fill="#fff3eb"/><defs><g transform="matrix(0.33561232686042786 0 0 0.33561232686042786 48.08324432373047 122.08324432373047)"><path d="M48.855,412.041c-17.463,0-30.565-5.089-38.943-15.127C3.243,388.922,0,378.28,0,364.379  c0-9.308,7.546-16.854,16.855-16.854s16.855,7.546,16.855,16.854c0,7.343,1.306,10.004,2.084,10.936  c1.577,1.889,6.459,3.016,13.063,3.016c9.308,0,16.855,7.546,16.855,16.855C65.71,404.495,58.164,412.041,48.855,412.041z" fill="#593f11"/><path d="M48.855,378.331c-6.603,0-11.486-1.127-13.063-3.016  c-0.777-0.932-2.084-3.594-2.084-10.936c0-3.682-1.195-7.079-3.199-9.851c-6.505,15.491-10.856,32.11-12.68,49.482  c7.947,5.328,18.326,8.032,31.024,8.032c9.308,0,16.855-7.546,16.855-16.855C65.71,385.878,58.164,378.331,48.855,378.331z" opacity="0.05" fill="#000000"/><path d="M315.579,420.546v-23.917c0-12.033-9.754-21.788-21.788-21.788l0,0  c-12.033,0-21.788,9.754-21.788,21.788v42.523c0,12.647,10.253,22.901,22.901,22.901h31.103c8.582,0,15.539-6.957,15.539-15.539l0,0  c0-8.582-6.957-15.539-15.539-15.539l0,0C320.248,430.974,315.579,426.305,315.579,420.546z" fill="#6e4015"/><path d="M227.363,447.911H54.327c-13.984,0-25.321-11.337-25.321-25.321l0,0  c0-97.159,78.763-175.922,175.922-175.922h128.017v95.659C332.946,400.639,285.674,447.911,227.363,447.911z" fill="#e6dfe5"/><path d="M204.929,246.667c-35.475,0-68.49,10.51-96.123,28.572  c2.644,36.728,30.482,66.461,66.331,72.007c7.144,1.105,13.886,4.088,19.618,8.493c29.008,22.289,67.27,35.84,109.212,35.84  c5.801,0,11.532-0.259,17.178-0.765c7.525-14.524,11.801-31.001,11.801-48.487v-95.659H204.929V246.667z" opacity="0.05" fill="#000000"/><path d="M79.209,304.625c-1.677,0-3.333,0.086-4.976,0.216c-24.414,27.082-40.533,61.786-44.349,100.114  c11.392,14.753,29.243,24.265,49.325,24.265c34.405,0,62.297-27.892,62.297-62.297C141.506,332.516,113.614,304.625,79.209,304.625z  " fill="#7d5633"/><g><path d="M114.526,423.468l3.189-29.897c1.664-15.596-10.56-29.191-26.244-29.191l0,0   c-32.889,0-62.131,20.926-72.744,52.055l0,0c-7.628,22.375,9.005,45.619,32.645,45.619h95.152c3.711,0,6.719-3.008,6.719-6.719l0,0   c0-13.453-10.906-24.359-24.359-24.359h-7.609C117.241,430.974,114.097,427.479,114.526,423.468z" fill="#6e4015"/><path d="M226.877,420.546v-23.917c0-12.033-9.754-21.788-21.788-21.788l0,0   c-12.033,0-21.788,9.754-21.788,21.788v42.523c0,12.647,10.253,22.901,22.901,22.901h31.103c8.582,0,15.539-6.957,15.539-15.539   l0,0c0-8.582-6.957-15.539-15.539-15.539l0,0C231.546,430.974,226.877,426.305,226.877,420.546z" fill="#6e4015"/></g><ellipse cx="316px" cy="237px" rx="164px" ry="141px" fill="#e6dfe5"/><path d="M351.15,317.089c0,19.075-15.464,34.539-34.539,34.539s-34.539-15.464-34.539-34.539v-46.098h69.077  V317.089z" fill="#edbcb9"/><path d="M316.611,321.968c-4.516,0-8.178-3.661-8.178-8.178v-38.319  c0-4.516,3.661-8.178,8.178-8.178c4.516,0,8.178,3.661,8.178,8.178v38.319C324.789,318.307,321.128,321.968,316.611,321.968z" opacity="0.15" fill="#000000"/><path d="M480.083,225.526c-0.033-0.019-0.065-0.039-0.098-0.058  c-0.078-1.094-0.176-2.183-0.276-3.27c-8.958-70.727-78.556-125.772-163.096-125.772c-84.537,0-154.131,55.04-163.095,125.761  c-0.1,1.091-0.197,2.183-0.277,3.28c-0.033,0.019-0.065,0.039-0.098,0.059c-0.397,4.007-0.611,8.059-0.611,12.154  c0,49.766,29.899,93.517,75.072,118.677c29.038-6.113,54.607-21.63,73.374-43.228c8.204-9.441,23.067-9.441,31.271,0  c18.767,21.598,44.337,37.115,73.374,43.228c45.173-25.161,75.072-68.911,75.072-118.677  C480.693,233.585,480.48,229.533,480.083,225.526z" opacity="0.1" fill="#000000"/><path d="M479.985,201.784c-6.132-84.88-76.93-151.838-163.372-151.838s-157.24,66.958-163.372,151.838  c-19.12,10.922-32.015,31.492-32.015,55.088l0,0c0,43.457,35.229,78.684,78.684,78.684l0,0c40.357,0,76.525-17.866,101.067-46.111  c8.204-9.441,23.067-9.441,31.271,0c24.542,28.245,60.711,46.111,101.067,46.111l0,0c43.457,0,78.684-35.229,78.684-78.684l0,0  C511.999,233.276,499.103,212.707,479.985,201.784z" fill="#e6dfe5"/><path d="M292.604,51.695c-75.21,11.048-133.798,73.206-139.361,150.067  c18.453,17.949,43.63,29.019,71.406,29.019c56.58,0,102.448-45.867,102.448-102.448C327.096,97.833,313.754,70.463,292.604,51.695z" fill="#7d5633"/><path d="M230.903,74.136c-39.305,24.181-67.613,64.499-75.716,111.721  c1.257,0.224,2.53,0.415,3.833,0.534l0,0c19.772,1.801,38.585-8.863,47.195-26.752l26.977-56.047  C238.062,93.473,236.581,82.402,230.903,74.136z" opacity="0.1" fill="#000000"/><g><path d="M154.842,171.435L154.842,171.435c-28.962-6.18-42.851-39.372-26.922-64.337l10.545-16.526   c16.849-26.405,48.322-39.576,78.956-33.039l0,0c19.39,4.137,28.689,26.36,18.024,43.073l-32.296,50.615   C192.84,167.377,173.584,175.433,154.842,171.435z" fill="#6e4015"/><path d="M478.383,171.435L478.383,171.435c28.962-6.18,42.851-39.372,26.922-64.337L494.76,90.572   c-16.849-26.405-48.322-39.576-78.956-33.039l0,0c-19.39,4.137-28.689,26.36-18.024,43.073l32.296,50.615   C440.385,167.377,459.64,175.433,478.383,171.435z" fill="#6e4015"/></g><g><path d="M349.449,242.166l-7.642,9.102c-13.147,15.658-37.24,15.658-50.387,0l-7.643-9.102   c-3.938-4.69-0.604-11.842,5.521-11.842h54.633C350.052,230.324,353.386,237.476,349.449,242.166z" fill="#421d07"/><path d="M244.484,169.596c-4.516,0-8.178,3.661-8.178,8.178v12.178c0,4.516,3.661,8.178,8.178,8.178   c4.516,0,8.178-3.661,8.178-8.178v-12.178C252.661,173.257,249.001,169.596,244.484,169.596z" fill="#421d07"/><path d="M388.74,169.596c-4.516,0-8.178,3.661-8.178,8.178v12.178c0,4.516,3.661,8.178,8.178,8.178   c4.516,0,8.178-3.661,8.178-8.178v-12.178C396.918,173.257,393.257,169.596,388.74,169.596z" fill="#421d07"/></g></g><g transform="matrix(0.33561232686042786 0 0 0.33561232686042786 48.08324432373047 122.08324432373047)"><path d="M48.855,412.041c-17.463,0-30.565-5.089-38.943-15.127C3.243,388.922,0,378.28,0,364.379  c0-9.308,7.546-16.854,16.855-16.854s16.855,7.546,16.855,16.854c0,7.343,1.306,10.004,2.084,10.936  c1.577,1.889,6.459,3.016,13.063,3.016c9.308,0,16.855,7.546,16.855,16.855C65.71,404.495,58.164,412.041,48.855,412.041z" fill="#593f11"/><path d="M48.855,378.331c-6.603,0-11.486-1.127-13.063-3.016  c-0.777-0.932-2.084-3.594-2.084-10.936c0-3.682-1.195-7.079-3.199-9.851c-6.505,15.491-10.856,32.11-12.68,49.482  c7.947,5.328,18.326,8.032,31.024,8.032c9.308,0,16.855-7.546,16.855-16.855C65.71,385.878,58.164,378.331,48.855,378.331z" opacity="0.05" fill="#000000"/><path d="M315.579,420.546v-23.917c0-12.033-9.754-21.788-21.788-21.788l0,0  c-12.033,0-21.788,9.754-21.788,21.788v42.523c0,12.647,10.253,22.901,22.901,22.901h31.103c8.582,0,15.539-6.957,15.539-15.539l0,0  c0-8.582-6.957-15.539-15.539-15.539l0,0C320.248,430.974,315.579,426.305,315.579,420.546z" fill="#6e4015"/><path d="M227.363,447.911H54.327c-13.984,0-25.321-11.337-25.321-25.321l0,0  c0-97.159,78.763-175.922,175.922-175.922h128.017v95.659C332.946,400.639,285.674,447.911,227.363,447.911z" fill="#e6dfe5"/><path d="M204.929,246.667c-35.475,0-68.49,10.51-96.123,28.572  c2.644,36.728,30.482,66.461,66.331,72.007c7.144,1.105,13.886,4.088,19.618,8.493c29.008,22.289,67.27,35.84,109.212,35.84  c5.801,0,11.532-0.259,17.178-0.765c7.525-14.524,11.801-31.001,11.801-48.487v-95.659H204.929V246.667z" opacity="0.05" fill="#000000"/><path d="M79.209,304.625c-1.677,0-3.333,0.086-4.976,0.216c-24.414,27.082-40.533,61.786-44.349,100.114  c11.392,14.753,29.243,24.265,49.325,24.265c34.405,0,62.297-27.892,62.297-62.297C141.506,332.516,113.614,304.625,79.209,304.625z  " fill="#7d5633"/><g><path d="M114.526,423.468l3.189-29.897c1.664-15.596-10.56-29.191-26.244-29.191l0,0   c-32.889,0-62.131,20.926-72.744,52.055l0,0c-7.628,22.375,9.005,45.619,32.645,45.619h95.152c3.711,0,6.719-3.008,6.719-6.719l0,0   c0-13.453-10.906-24.359-24.359-24.359h-7.609C117.241,430.974,114.097,427.479,114.526,423.468z" fill="#6e4015"/><path d="M226.877,420.546v-23.917c0-12.033-9.754-21.788-21.788-21.788l0,0   c-12.033,0-21.788,9.754-21.788,21.788v42.523c0,12.647,10.253,22.901,22.901,22.901h31.103c8.582,0,15.539-6.957,15.539-15.539   l0,0c0-8.582-6.957-15.539-15.539-15.539l0,0C231.546,430.974,226.877,426.305,226.877,420.546z" fill="#6e4015"/></g><ellipse cx="316px" cy="237px" rx="164px" ry="141px" fill="#e6dfe5"/><path d="M351.15,317.089c0,19.075-15.464,34.539-34.539,34.539s-34.539-15.464-34.539-34.539v-46.098h69.077  V317.089z" fill="#edbcb9"/><path d="M316.611,321.968c-4.516,0-8.178-3.661-8.178-8.178v-38.319  c0-4.516,3.661-8.178,8.178-8.178c4.516,0,8.178,3.661,8.178,8.178v38.319C324.789,318.307,321.128,321.968,316.611,321.968z" opacity="0.15" fill="#000000"/><path d="M480.083,225.526c-0.033-0.019-0.065-0.039-0.098-0.058  c-0.078-1.094-0.176-2.183-0.276-3.27c-8.958-70.727-78.556-125.772-163.096-125.772c-84.537,0-154.131,55.04-163.095,125.761  c-0.1,1.091-0.197,2.183-0.277,3.28c-0.033,0.019-0.065,0.039-0.098,0.059c-0.397,4.007-0.611,8.059-0.611,12.154  c0,49.766,29.899,93.517,75.072,118.677c29.038-6.113,54.607-21.63,73.374-43.228c8.204-9.441,23.067-9.441,31.271,0  c18.767,21.598,44.337,37.115,73.374,43.228c45.173-25.161,75.072-68.911,75.072-118.677  C480.693,233.585,480.48,229.533,480.083,225.526z" opacity="0.1" fill="#000000"/><path d="M479.985,201.784c-6.132-84.88-76.93-151.838-163.372-151.838s-157.24,66.958-163.372,151.838  c-19.12,10.922-32.015,31.492-32.015,55.088l0,0c0,43.457,35.229,78.684,78.684,78.684l0,0c40.357,0,76.525-17.866,101.067-46.111  c8.204-9.441,23.067-9.441,31.271,0c24.542,28.245,60.711,46.111,101.067,46.111l0,0c43.457,0,78.684-35.229,78.684-78.684l0,0  C511.999,233.276,499.103,212.707,479.985,201.784z" fill="#e6dfe5"/><path d="M292.604,51.695c-75.21,11.048-133.798,73.206-139.361,150.067  c18.453,17.949,43.63,29.019,71.406,29.019c56.58,0,102.448-45.867,102.448-102.448C327.096,97.833,313.754,70.463,292.604,51.695z" fill="#7d5633"/><path d="M230.903,74.136c-39.305,24.181-67.613,64.499-75.716,111.721  c1.257,0.224,2.53,0.415,3.833,0.534l0,0c19.772,1.801,38.585-8.863,47.195-26.752l26.977-56.047  C238.062,93.473,236.581,82.402,230.903,74.136z" opacity="0.1" fill="#000000"/><g><path d="M154.842,171.435L154.842,171.435c-28.962-6.18-42.851-39.372-26.922-64.337l10.545-16.526   c16.849-26.405,48.322-39.576,78.956-33.039l0,0c19.39,4.137,28.689,26.36,18.024,43.073l-32.296,50.615   C192.84,167.377,173.584,175.433,154.842,171.435z" fill="#6e4015"/><path d="M478.383,171.435L478.383,171.435c28.962-6.18,42.851-39.372,26.922-64.337L494.76,90.572   c-16.849-26.405-48.322-39.576-78.956-33.039l0,0c-19.39,4.137-28.689,26.36-18.024,43.073l32.296,50.615   C440.385,167.377,459.64,175.433,478.383,171.435z" fill="#6e4015"/></g><g><path d="M349.449,242.166l-7.642,9.102c-13.147,15.658-37.24,15.658-50.387,0l-7.643-9.102   c-3.938-4.69-0.604-11.842,5.521-11.842h54.633C350.052,230.324,353.386,237.476,349.449,242.166z" fill="#421d07"/><path d="M244.484,169.596c-4.516,0-8.178,3.661-8.178,8.178v12.178c0,4.516,3.661,8.178,8.178,8.178   c4.516,0,8.178-3.661,8.178-8.178v-12.178C252.661,173.257,249.001,169.596,244.484,169.596z" fill="#421d07"/><path d="M388.74,169.596c-4.516,0-8.178,3.661-8.178,8.178v12.178c0,4.516,3.661,8.178,8.178,8.178   c4.516,0,8.178-3.661,8.178-8.178v-12.178C396.918,173.257,393.257,169.596,388.74,169.596z" fill="#421d07"/></g></g><g transform="matrix(0.33561232686042786 0 0 0.33561232686042786 48.08324432373047 122.08324432373047)"><path d="M48.855,412.041c-17.463,0-30.565-5.089-38.943-15.127C3.243,388.922,0,378.28,0,364.379  c0-9.308,7.546-16.854,16.855-16.854s16.855,7.546,16.855,16.854c0,7.343,1.306,10.004,2.084,10.936  c1.577,1.889,6.459,3.016,13.063,3.016c9.308,0,16.855,7.546,16.855,16.855C65.71,404.495,58.164,412.041,48.855,412.041z" fill="#593f11"/><path d="M48.855,378.331c-6.603,0-11.486-1.127-13.063-3.016  c-0.777-0.932-2.084-3.594-2.084-10.936c0-3.682-1.195-7.079-3.199-9.851c-6.505,15.491-10.856,32.11-12.68,49.482  c7.947,5.328,18.326,8.032,31.024,8.032c9.308,0,16.855-7.546,16.855-16.855C65.71,385.878,58.164,378.331,48.855,378.331z" opacity="0.05" fill="#000000"/><path d="M315.579,420.546v-23.917c0-12.033-9.754-21.788-21.788-21.788l0,0  c-12.033,0-21.788,9.754-21.788,21.788v42.523c0,12.647,10.253,22.901,22.901,22.901h31.103c8.582,0,15.539-6.957,15.539-15.539l0,0  c0-8.582-6.957-15.539-15.539-15.539l0,0C320.248,430.974,315.579,426.305,315.579,420.546z" fill="#6e4015"/><path d="M227.363,447.911H54.327c-13.984,0-25.321-11.337-25.321-25.321l0,0  c0-97.159,78.763-175.922,175.922-175.922h128.017v95.659C332.946,400.639,285.674,447.911,227.363,447.911z" fill="#e6dfe5"/><path d="M204.929,246.667c-35.475,0-68.49,10.51-96.123,28.572  c2.644,36.728,30.482,66.461,66.331,72.007c7.144,1.105,13.886,4.088,19.618,8.493c29.008,22.289,67.27,35.84,109.212,35.84  c5.801,0,11.532-0.259,17.178-0.765c7.525-14.524,11.801-31.001,11.801-48.487v-95.659H204.929V246.667z" opacity="0.05" fill="#000000"/><path d="M79.209,304.625c-1.677,0-3.333,0.086-4.976,0.216c-24.414,27.082-40.533,61.786-44.349,100.114  c11.392,14.753,29.243,24.265,49.325,24.265c34.405,0,62.297-27.892,62.297-62.297C141.506,332.516,113.614,304.625,79.209,304.625z  " fill="#7d5633"/><g><path d="M114.526,423.468l3.189-29.897c1.664-15.596-10.56-29.191-26.244-29.191l0,0   c-32.889,0-62.131,20.926-72.744,52.055l0,0c-7.628,22.375,9.005,45.619,32.645,45.619h95.152c3.711,0,6.719-3.008,6.719-6.719l0,0   c0-13.453-10.906-24.359-24.359-24.359h-7.609C117.241,430.974,114.097,427.479,114.526,423.468z" fill="#6e4015"/><path d="M226.877,420.546v-23.917c0-12.033-9.754-21.788-21.788-21.788l0,0   c-12.033,0-21.788,9.754-21.788,21.788v42.523c0,12.647,10.253,22.901,22.901,22.901h31.103c8.582,0,15.539-6.957,15.539-15.539   l0,0c0-8.582-6.957-15.539-15.539-15.539l0,0C231.546,430.974,226.877,426.305,226.877,420.546z" fill="#6e4015"/></g><ellipse cx="316px" cy="237px" rx="164px" ry="141px" fill="#e6dfe5"/><path d="M351.15,317.089c0,19.075-15.464,34.539-34.539,34.539s-34.539-15.464-34.539-34.539v-46.098h69.077  V317.089z" fill="#edbcb9"/><path d="M316.611,321.968c-4.516,0-8.178-3.661-8.178-8.178v-38.319  c0-4.516,3.661-8.178,8.178-8.178c4.516,0,8.178,3.661,8.178,8.178v38.319C324.789,318.307,321.128,321.968,316.611,321.968z" opacity="0.15" fill="#000000"/><path d="M480.083,225.526c-0.033-0.019-0.065-0.039-0.098-0.058  c-0.078-1.094-0.176-2.183-0.276-3.27c-8.958-70.727-78.556-125.772-163.096-125.772c-84.537,0-154.131,55.04-163.095,125.761  c-0.1,1.091-0.197,2.183-0.277,3.28c-0.033,0.019-0.065,0.039-0.098,0.059c-0.397,4.007-0.611,8.059-0.611,12.154  c0,49.766,29.899,93.517,75.072,118.677c29.038-6.113,54.607-21.63,73.374-43.228c8.204-9.441,23.067-9.441,31.271,0  c18.767,21.598,44.337,37.115,73.374,43.228c45.173-25.161,75.072-68.911,75.072-118.677  C480.693,233.585,480.48,229.533,480.083,225.526z" opacity="0.1" fill="#000000"/><path d="M479.985,201.784c-6.132-84.88-76.93-151.838-163.372-151.838s-157.24,66.958-163.372,151.838  c-19.12,10.922-32.015,31.492-32.015,55.088l0,0c0,43.457,35.229,78.684,78.684,78.684l0,0c40.357,0,76.525-17.866,101.067-46.111  c8.204-9.441,23.067-9.441,31.271,0c24.542,28.245,60.711,46.111,101.067,46.111l0,0c43.457,0,78.684-35.229,78.684-78.684l0,0  C511.999,233.276,499.103,212.707,479.985,201.784z" fill="#e6dfe5"/><path d="M292.604,51.695c-75.21,11.048-133.798,73.206-139.361,150.067  c18.453,17.949,43.63,29.019,71.406,29.019c56.58,0,102.448-45.867,102.448-102.448C327.096,97.833,313.754,70.463,292.604,51.695z" fill="#7d5633"/><path d="M230.903,74.136c-39.305,24.181-67.613,64.499-75.716,111.721  c1.257,0.224,2.53,0.415,3.833,0.534l0,0c19.772,1.801,38.585-8.863,47.195-26.752l26.977-56.047  C238.062,93.473,236.581,82.402,230.903,74.136z" opacity="0.1" fill="#000000"/><g><path d="M154.842,171.435L154.842,171.435c-28.962-6.18-42.851-39.372-26.922-64.337l10.545-16.526   c16.849-26.405,48.322-39.576,78.956-33.039l0,0c19.39,4.137,28.689,26.36,18.024,43.073l-32.296,50.615   C192.84,167.377,173.584,175.433,154.842,171.435z" fill="#6e4015"/><path d="M478.383,171.435L478.383,171.435c28.962-6.18,42.851-39.372,26.922-64.337L494.76,90.572   c-16.849-26.405-48.322-39.576-78.956-33.039l0,0c-19.39,4.137-28.689,26.36-18.024,43.073l32.296,50.615   C440.385,167.377,459.64,175.433,478.383,171.435z" fill="#6e4015"/></g><g><path d="M349.449,242.166l-7.642,9.102c-13.147,15.658-37.24,15.658-50.387,0l-7.643-9.102   c-3.938-4.69-0.604-11.842,5.521-11.842h54.633C350.052,230.324,353.386,237.476,349.449,242.166z" fill="#421d07"/><path d="M244.484,169.596c-4.516,0-8.178,3.661-8.178,8.178v12.178c0,4.516,3.661,8.178,8.178,8.178   c4.516,0,8.178-3.661,8.178-8.178v-12.178C252.661,173.257,249.001,169.596,244.484,169.596z" fill="#421d07"/><path d="M388.74,169.596c-4.516,0-8.178,3.661-8.178,8.178v12.178c0,4.516,3.661,8.178,8.178,8.178   c4.516,0,8.178-3.661,8.178-8.178v-12.178C396.918,173.257,393.257,169.596,388.74,169.596z" fill="#421d07"/></g></g><g transform="matrix(0.33561232686042786 0 0 0.33561232686042786 48.08324432373047 122.08324432373047)"><path d="M48.855,412.041c-17.463,0-30.565-5.089-38.943-15.127C3.243,388.922,0,378.28,0,364.379  c0-9.308,7.546-16.854,16.855-16.854s16.855,7.546,16.855,16.854c0,7.343,1.306,10.004,2.084,10.936  c1.577,1.889,6.459,3.016,13.063,3.016c9.308,0,16.855,7.546,16.855,16.855C65.71,404.495,58.164,412.041,48.855,412.041z" fill="#593f11"/><path d="M48.855,378.331c-6.603,0-11.486-1.127-13.063-3.016  c-0.777-0.932-2.084-3.594-2.084-10.936c0-3.682-1.195-7.079-3.199-9.851c-6.505,15.491-10.856,32.11-12.68,49.482  c7.947,5.328,18.326,8.032,31.024,8.032c9.308,0,16.855-7.546,16.855-16.855C65.71,385.878,58.164,378.331,48.855,378.331z" opacity="0.05" fill="#000000"/><path d="M315.579,420.546v-23.917c0-12.033-9.754-21.788-21.788-21.788l0,0  c-12.033,0-21.788,9.754-21.788,21.788v42.523c0,12.647,10.253,22.901,22.901,22.901h31.103c8.582,0,15.539-6.957,15.539-15.539l0,0  c0-8.582-6.957-15.539-15.539-15.539l0,0C320.248,430.974,315.579,426.305,315.579,420.546z" fill="#6e4015"/><path d="M227.363,447.911H54.327c-13.984,0-25.321-11.337-25.321-25.321l0,0  c0-97.159,78.763-175.922,175.922-175.922h128.017v95.659C332.946,400.639,285.674,447.911,227.363,447.911z" fill="#e6dfe5"/><path d="M204.929,246.667c-35.475,0-68.49,10.51-96.123,28.572  c2.644,36.728,30.482,66.461,66.331,72.007c7.144,1.105,13.886,4.088,19.618,8.493c29.008,22.289,67.27,35.84,109.212,35.84  c5.801,0,11.532-0.259,17.178-0.765c7.525-14.524,11.801-31.001,11.801-48.487v-95.659H204.929V246.667z" opacity="0.05" fill="#000000"/><path d="M79.209,304.625c-1.677,0-3.333,0.086-4.976,0.216c-24.414,27.082-40.533,61.786-44.349,100.114  c11.392,14.753,29.243,24.265,49.325,24.265c34.405,0,62.297-27.892,62.297-62.297C141.506,332.516,113.614,304.625,79.209,304.625z  " fill="#7d5633"/><g><path d="M114.526,423.468l3.189-29.897c1.664-15.596-10.56-29.191-26.244-29.191l0,0   c-32.889,0-62.131,20.926-72.744,52.055l0,0c-7.628,22.375,9.005,45.619,32.645,45.619h95.152c3.711,0,6.719-3.008,6.719-6.719l0,0   c0-13.453-10.906-24.359-24.359-24.359h-7.609C117.241,430.974,114.097,427.479,114.526,423.468z" fill="#6e4015"/><path d="M226.877,420.546v-23.917c0-12.033-9.754-21.788-21.788-21.788l0,0   c-12.033,0-21.788,9.754-21.788,21.788v42.523c0,12.647,10.253,22.901,22.901,22.901h31.103c8.582,0,15.539-6.957,15.539-15.539   l0,0c0-8.582-6.957-15.539-15.539-15.539l0,0C231.546,430.974,226.877,426.305,226.877,420.546z" fill="#6e4015"/></g><ellipse cx="316px" cy="237px" rx="164px" ry="141px" fill="#e6dfe5"/><path d="M351.15,317.089c0,19.075-15.464,34.539-34.539,34.539s-34.539-15.464-34.539-34.539v-46.098h69.077  V317.089z" fill="#edbcb9"/><path d="M316.611,321.968c-4.516,0-8.178-3.661-8.178-8.178v-38.319  c0-4.516,3.661-8.178,8.178-8.178c4.516,0,8.178,3.661,8.178,8.178v38.319C324.789,318.307,321.128,321.968,316.611,321.968z" opacity="0.15" fill="#000000"/><path d="M480.083,225.526c-0.033-0.019-0.065-0.039-0.098-0.058  c-0.078-1.094-0.176-2.183-0.276-3.27c-8.958-70.727-78.556-125.772-163.096-125.772c-84.537,0-154.131,55.04-163.095,125.761  c-0.1,1.091-0.197,2.183-0.277,3.28c-0.033,0.019-0.065,0.039-0.098,0.059c-0.397,4.007-0.611,8.059-0.611,12.154  c0,49.766,29.899,93.517,75.072,118.677c29.038-6.113,54.607-21.63,73.374-43.228c8.204-9.441,23.067-9.441,31.271,0  c18.767,21.598,44.337,37.115,73.374,43.228c45.173-25.161,75.072-68.911,75.072-118.677  C480.693,233.585,480.48,229.533,480.083,225.526z" opacity="0.1" fill="#000000"/><path d="M479.985,201.784c-6.132-84.88-76.93-151.838-163.372-151.838s-157.24,66.958-163.372,151.838  c-19.12,10.922-32.015,31.492-32.015,55.088l0,0c0,43.457,35.229,78.684,78.684,78.684l0,0c40.357,0,76.525-17.866,101.067-46.111  c8.204-9.441,23.067-9.441,31.271,0c24.542,28.245,60.711,46.111,101.067,46.111l0,0c43.457,0,78.684-35.229,78.684-78.684l0,0  C511.999,233.276,499.103,212.707,479.985,201.784z" fill="#e6dfe5"/><path d="M292.604,51.695c-75.21,11.048-133.798,73.206-139.361,150.067  c18.453,17.949,43.63,29.019,71.406,29.019c56.58,0,102.448-45.867,102.448-102.448C327.096,97.833,313.754,70.463,292.604,51.695z" fill="#7d5633"/><path d="M230.903,74.136c-39.305,24.181-67.613,64.499-75.716,111.721  c1.257,0.224,2.53,0.415,3.833,0.534l0,0c19.772,1.801,38.585-8.863,47.195-26.752l26.977-56.047  C238.062,93.473,236.581,82.402,230.903,74.136z" opacity="0.1" fill="#000000"/><g><path d="M154.842,171.435L154.842,171.435c-28.962-6.18-42.851-39.372-26.922-64.337l10.545-16.526   c16.849-26.405,48.322-39.576,78.956-33.039l0,0c19.39,4.137,28.689,26.36,18.024,43.073l-32.296,50.615   C192.84,167.377,173.584,175.433,154.842,171.435z" fill="#6e4015"/><path d="M478.383,171.435L478.383,171.435c28.962-6.18,42.851-39.372,26.922-64.337L494.76,90.572   c-16.849-26.405-48.322-39.576-78.956-33.039l0,0c-19.39,4.137-28.689,26.36-18.024,43.073l32.296,50.615   C440.385,167.377,459.64,175.433,478.383,171.435z" fill="#6e4015"/></g><g><path d="M349.449,242.166l-7.642,9.102c-13.147,15.658-37.24,15.658-50.387,0l-7.643-9.102   c-3.938-4.69-0.604-11.842,5.521-11.842h54.633C350.052,230.324,353.386,237.476,349.449,242.166z" fill="#421d07"/><path d="M244.484,169.596c-4.516,0-8.178,3.661-8.178,8.178v12.178c0,4.516,3.661,8.178,8.178,8.178   c4.516,0,8.178-3.661,8.178-8.178v-12.178C252.661,173.257,249.001,169.596,244.484,169.596z" fill="#421d07"/><path d="M388.74,169.596c-4.516,0-8.178,3.661-8.178,8.178v12.178c0,4.516,3.661,8.178,8.178,8.178   c4.516,0,8.178-3.661,8.178-8.178v-12.178C396.918,173.257,393.257,169.596,388.74,169.596z" fill="#421d07"/></g></g><g transform="matrix(-0.23594307899475098 0 0 0.23594307899475098 316.40142822265625 163.90039648842162)"><path d="M141.694,336.659C63.564,336.659,0,273.095,0,194.966c0-35.123,12.947-68.819,36.456-94.881  c6.489-7.194,17.584-7.766,24.779-1.276s7.766,17.585,1.276,24.78c-17.682,19.603-27.422,44.951-27.422,71.378  c0,58.782,47.823,106.605,106.605,106.605c9.69,0,17.545,7.855,17.545,17.545C159.238,328.804,151.383,336.659,141.694,336.659z" fill="#a3a09b"/><path d="M141.694,301.57c-13.967,0-27.311-2.704-39.545-7.609  c-11.035,6.311-20.352,15.269-27.086,26.022c19.874,10.635,42.56,16.677,66.633,16.677c9.69,0,17.545-7.855,17.545-17.545  C159.238,309.425,151.383,301.57,141.694,301.57z" opacity="0.1" fill="#000000"/><path d="M320.979,495.067L320.979,495.067c-15.807,0-28.62-12.814-28.62-28.62V360.73h57.24v105.717  C349.598,482.254,336.786,495.067,320.979,495.067z" fill="#a3a09b"/><path d="M349.598,445.448c-21.123,0-38.246-17.123-38.246-38.246c0-21.122,17.123-38.246,38.246-38.246  V445.448z" fill="#7d757d"/><path d="M320.979,495.067L320.979,495.067c-15.807,0-28.62-12.814-28.62-28.62  V360.73h57.24v105.717C349.598,482.254,336.786,495.067,320.979,495.067z" opacity="0.08" fill="#000000"/><path d="M288.543,283.843H173.025c-42.463,0-76.887,34.424-76.887,76.887v105.717  c0,15.807,12.814,28.62,28.62,28.62s28.62-12.814,28.62-28.62v-31.373c6.272,1.653,12.855,2.543,19.647,2.543h36.494v28.83  c0,15.807,12.814,28.62,28.62,28.62l0,0c15.807,0,28.62-12.814,28.62-28.62v-28.87c48.184-0.843,86.991-40.141,86.991-88.527l0,0  C353.75,313.038,324.556,283.843,288.543,283.843z" fill="#a3a09b"/><path d="M96.491,353.446c-0.226,2.399-0.353,4.826-0.353,7.285v62.94c19.394,0,35.116-15.722,35.116-35.116  C131.254,369.278,115.722,353.636,96.491,353.446z" fill="#7d757d"/><path d="M288.543,283.843H173.025c-20.397,0-38.924,7.957-52.687,20.918  c22.103,39.884,66.925,67.703,119.534,67.703h110.727c2.041-7.461,3.151-15.305,3.151-23.413l0,0  C353.75,313.038,324.556,283.843,288.543,283.843z" opacity="0.08" fill="#000000"/><path d="M465.061,18.122l-0.009,0.002c-33.428,8.523-66.029,20.003-97.426,34.286  c-17.425-4.645-35.793-7.131-54.724-7.131l0,0c-18.932,0-37.3,2.486-54.724,7.131c-31.397-14.284-63.997-25.763-97.426-34.286  l-0.01-0.002c-24.601-6.272-48.227,13.111-46.885,38.463l0,0c1.867,35.239,6.934,70.233,15.127,104.555  c-5.885,13.821-10.035,28.5-12.168,43.83l0,0c-10.345,74.35,52.189,140.202,133.139,140.202h125.895  c80.949,0,143.484-65.852,133.139-140.202l0,0c-2.133-15.329-6.283-30.008-12.168-43.829c8.193-34.323,13.259-69.317,15.126-104.555  l0,0C513.289,31.233,489.662,11.85,465.061,18.122z" fill="#a3a09b"/><g><path d="M231.399,193.183c-4.497,0-8.142-3.645-8.142-8.142v-12.975c0-4.496,3.644-8.142,8.142-8.142   c4.497,0,8.142,3.645,8.142,8.142v12.975C239.54,189.538,235.896,193.183,231.399,193.183z" fill="#4b5159"/><path d="M394.4,193.183c-4.497,0-8.142-3.645-8.142-8.142v-12.975c0-4.496,3.644-8.142,8.142-8.142   c4.497,0,8.142,3.645,8.142,8.142v12.975C402.541,189.538,398.897,193.183,394.4,193.183z" fill="#4b5159"/></g><path d="M284.615,223.892v56.149c0,15.621,12.663,28.285,28.285,28.285c15.621,0,28.285-12.664,28.285-28.285  v-56.149L284.615,223.892z" fill="#edbcb9"/><path d="M312.899,282.378c-4.497,0-8.142-3.645-8.142-8.142v-46.44  c0-4.496,3.644-8.142,8.142-8.142c4.497,0,8.142,3.645,8.142,8.142v46.44C321.041,278.733,317.397,282.378,312.899,282.378z" opacity="0.1" fill="#000000"/><path d="M360.243,263.901c-36.695,0-47.343-26.153-47.343-37.348c0,11.195-10.648,37.348-47.343,37.348  l-22.702-65.543h140.089L360.243,263.901z" fill="#a3a09b"/><path d="M453.035,59.279l-0.004,0.001c-15.411,3.93-30.429,9.265-44.866,15.938  c-6.781,3.135-8.646,11.907-3.727,17.529l0,0c13.197,15.081,28.795,27.878,46.164,37.874c6.475,3.727,14.715,0.183,16.463-7.08  l0.001-0.005c3.723-15.461,6.022-31.232,6.863-47.115C474.529,65.123,463.999,56.483,453.035,59.279z" fill="#918f81"/><path d="M160.748,18.124l-0.01-0.002c-15.454-3.941-30.519,2.247-39.255,13.675  c6.058,27.489,30.549,48.061,59.859,48.061c25.001,0,46.493-14.973,56.035-36.433C212.459,33.238,186.856,24.781,160.748,18.124z" fill="#7d757d"/><path d="M151.87,76.421L151.87,76.421c0.841,15.882,3.138,31.652,6.863,47.115l0.001,0.005  c1.749,7.263,9.988,10.807,16.463,7.08l0,0c17.37-9.995,32.968-22.792,46.165-37.874l0,0c4.92-5.622,3.055-14.394-3.727-17.529l0,0  c-14.437-6.674-29.454-12.009-44.866-15.938l-0.004-0.001C161.801,56.483,151.271,65.123,151.87,76.421z" fill="#918f81"/><g><path d="M341.211,215.128l-6.589,7.848c-11.335,13.5-32.109,13.5-43.445,0l-6.589-7.848   c-3.396-4.044-0.521-10.212,4.759-10.212h47.105C341.732,204.917,344.607,211.085,341.211,215.128z" fill="#4b5159"/><path d="M169.953,244.066c-4.06,0-7.574-3.033-8.072-7.167c-0.538-4.464,2.642-8.52,7.107-9.059   l45.475-5.493c4.475-0.543,8.52,2.642,9.06,7.106c0.538,4.464-2.643,8.52-7.107,9.059l-45.475,5.493   C170.607,244.046,170.277,244.066,169.953,244.066z" fill="#4b5159"/><path d="M188.698,291.914c-2.414,0-4.804-1.068-6.409-3.114c-2.777-3.537-2.16-8.655,1.378-11.432   l36.028-28.285c3.537-2.778,8.655-2.16,11.431,1.376c2.777,3.537,2.16,8.655-1.376,11.432l-36.029,28.285   C192.229,291.347,190.456,291.914,188.698,291.914z" fill="#4b5159"/><path d="M455.847,244.066c-0.327,0-0.655-0.02-0.987-0.06l-45.475-5.493   c-4.464-0.54-7.645-4.595-7.107-9.059c0.54-4.465,4.606-7.647,9.06-7.106l45.475,5.493c4.464,0.54,7.645,4.595,7.107,9.059   C463.42,241.032,459.907,244.066,455.847,244.066z" fill="#4b5159"/><path d="M437.101,291.914c-1.76,0-3.531-0.568-5.023-1.738l-36.027-28.285   c-3.537-2.777-4.152-7.895-1.376-11.432c2.778-3.537,7.894-4.151,11.432-1.376l36.027,28.285c3.537,2.777,4.152,7.895,1.376,11.432   C441.904,290.845,439.515,291.914,437.101,291.914z" fill="#4b5159"/></g></g><g transform="matrix(0.146484375 0 0 -0.146484375 306 222)" id="L1_4"><g><path d="M111.98-105.323c0-111.98,74.809-110.057,58.687-114.665      c-79.644-22.756-100.17,86.676-107.679,86.676C35.931-133.313,0-128.5,0-105.323c0,23.199,27.989,56.001,69.985,56.001      C97.041-49.322,111.98-82.124,111.98-105.323" fill="#77b255"/><path d="M409.6-204.515c0-12.561-40.027,8.431-56.889,0c-22.756-11.378-22.756,10.194-22.756,22.756      s15.28,11.378,34.133,11.378C382.942-170.382,409.6-191.954,409.6-204.515" fill="#77b255"/><path d="M190.18-255.772c0-31.414-14.552-32.506-32.506-32.506c-17.965,0-32.518,1.092-32.518,32.506      c0,5.564,0.967,11.708,2.662,18.057c7.862,29.468,31.334,63.215,46.103,63.215C191.875-174.5,190.18-224.358,190.18-255.772" fill="#77b255"/><path d="M287.698-255.772c0-31.414,14.541-32.506,32.495-32.506c17.966,0,32.518,1.092,32.518,32.506      c0,5.564-0.967,11.708-2.674,18.057c-7.851,29.468-31.323,63.215-46.091,63.215C285.992-174.5,287.698-224.358,287.698-255.772" fill="#77b255"/></g><path d="M364.089-185.878c0-45.511-58.584-45.511-130.844-45.511s-130.844,0-130.844,45.511     c0,75.401,58.584,136.533,130.844,136.533S364.089-110.478,364.089-185.878" fill="#3e721d"/><path d="M68.267-83.478c0-6.292-5.097-11.378-11.378-11.378S45.511-89.77,45.511-83.478     c0,6.292,5.097,11.378,11.378,11.378S68.267-77.186,68.267-83.478" fill="#292f33"/><g><path d="M269.278-164.26c0-40.858-16.134-44.373-36.033-44.373s-36.033,3.516-36.033,44.373      c0,40.846,16.134,92.16,36.033,92.16S269.278-123.414,269.278-164.26" fill="#5c913b"/><path d="M341.333-151.745c9.91-39.617-8.92-45.511-28.82-45.511c-19.9,0-28.82-7.851-28.82,32.996      s-12.709,73.956,7.191,73.956C310.784-90.305,329.956-106.234,341.333-151.745" fill="#5c913b"/><path d="M182.841-164.26c0-40.858-8.932-32.996-28.831-32.996s-38.719,5.882-28.82,45.511      c11.378,45.511,36.989,61.44,56.889,61.44C201.99-90.305,182.841-123.414,182.841-164.26" fill="#5c913b"/></g></g><g transform="matrix(0.146484375 0 0 -0.146484375 222 38)" id="L1_5"><g><path d="M111.98-105.323c0-111.98,74.809-110.057,58.687-114.665      c-79.644-22.756-100.17,86.676-107.679,86.676C35.931-133.313,0-128.5,0-105.323c0,23.199,27.989,56.001,69.985,56.001      C97.041-49.322,111.98-82.124,111.98-105.323" fill="#77b255"/><path d="M409.6-204.515c0-12.561-40.027,8.431-56.889,0c-22.756-11.378-22.756,10.194-22.756,22.756      s15.28,11.378,34.133,11.378C382.942-170.382,409.6-191.954,409.6-204.515" fill="#77b255"/><path d="M190.18-255.772c0-31.414-14.552-32.506-32.506-32.506c-17.965,0-32.518,1.092-32.518,32.506      c0,5.564,0.967,11.708,2.662,18.057c7.862,29.468,31.334,63.215,46.103,63.215C191.875-174.5,190.18-224.358,190.18-255.772" fill="#77b255"/><path d="M287.698-255.772c0-31.414,14.541-32.506,32.495-32.506c17.966,0,32.518,1.092,32.518,32.506      c0,5.564-0.967,11.708-2.674,18.057c-7.851,29.468-31.323,63.215-46.091,63.215C285.992-174.5,287.698-224.358,287.698-255.772" fill="#77b255"/></g><path d="M364.089-185.878c0-45.511-58.584-45.511-130.844-45.511s-130.844,0-130.844,45.511     c0,75.401,58.584,136.533,130.844,136.533S364.089-110.478,364.089-185.878" fill="#3e721d"/><path d="M68.267-83.478c0-6.292-5.097-11.378-11.378-11.378S45.511-89.77,45.511-83.478     c0,6.292,5.097,11.378,11.378,11.378S68.267-77.186,68.267-83.478" fill="#292f33"/><g><path d="M269.278-164.26c0-40.858-16.134-44.373-36.033-44.373s-36.033,3.516-36.033,44.373      c0,40.846,16.134,92.16,36.033,92.16S269.278-123.414,269.278-164.26" fill="#5c913b"/><path d="M341.333-151.745c9.91-39.617-8.92-45.511-28.82-45.511c-19.9,0-28.82-7.851-28.82,32.996      s-12.709,73.956,7.191,73.956C310.784-90.305,329.956-106.234,341.333-151.745" fill="#5c913b"/><path d="M182.841-164.26c0-40.858-8.932-32.996-28.831-32.996s-38.719,5.882-28.82,45.511      c11.378,45.511,36.989,61.44,56.889,61.44C201.99-90.305,182.841-123.414,182.841-164.26" fill="#5c913b"/></g></g><g transform="matrix(0.146484375 0 0 -0.146484375 187 171)" id="L1_6"><g><path d="M111.98-105.323c0-111.98,74.809-110.057,58.687-114.665      c-79.644-22.756-100.17,86.676-107.679,86.676C35.931-133.313,0-128.5,0-105.323c0,23.199,27.989,56.001,69.985,56.001      C97.041-49.322,111.98-82.124,111.98-105.323" fill="#77b255"/><path d="M409.6-204.515c0-12.561-40.027,8.431-56.889,0c-22.756-11.378-22.756,10.194-22.756,22.756      s15.28,11.378,34.133,11.378C382.942-170.382,409.6-191.954,409.6-204.515" fill="#77b255"/><path d="M190.18-255.772c0-31.414-14.552-32.506-32.506-32.506c-17.965,0-32.518,1.092-32.518,32.506      c0,5.564,0.967,11.708,2.662,18.057c7.862,29.468,31.334,63.215,46.103,63.215C191.875-174.5,190.18-224.358,190.18-255.772" fill="#77b255"/><path d="M287.698-255.772c0-31.414,14.541-32.506,32.495-32.506c17.966,0,32.518,1.092,32.518,32.506      c0,5.564-0.967,11.708-2.674,18.057c-7.851,29.468-31.323,63.215-46.091,63.215C285.992-174.5,287.698-224.358,287.698-255.772" fill="#77b255"/></g><path d="M364.089-185.878c0-45.511-58.584-45.511-130.844-45.511s-130.844,0-130.844,45.511     c0,75.401,58.584,136.533,130.844,136.533S364.089-110.478,364.089-185.878" fill="#3e721d"/><path d="M68.267-83.478c0-6.292-5.097-11.378-11.378-11.378S45.511-89.77,45.511-83.478     c0,6.292,5.097,11.378,11.378,11.378S68.267-77.186,68.267-83.478" fill="#292f33"/><g><path d="M269.278-164.26c0-40.858-16.134-44.373-36.033-44.373s-36.033,3.516-36.033,44.373      c0,40.846,16.134,92.16,36.033,92.16S269.278-123.414,269.278-164.26" fill="#5c913b"/><path d="M341.333-151.745c9.91-39.617-8.92-45.511-28.82-45.511c-19.9,0-28.82-7.851-28.82,32.996      s-12.709,73.956,7.191,73.956C310.784-90.305,329.956-106.234,341.333-151.745" fill="#5c913b"/><path d="M182.841-164.26c0-40.858-8.932-32.996-28.831-32.996s-38.719,5.882-28.82,45.511      c11.378,45.511,36.989,61.44,56.889,61.44C201.99-90.305,182.841-123.414,182.841-164.26" fill="#5c913b"/></g></g><g transform="matrix(0.146484375 0 0 -0.146484375 273 196)" id="L1_7"><g><path d="M111.98-105.323c0-111.98,74.809-110.057,58.687-114.665      c-79.644-22.756-100.17,86.676-107.679,86.676C35.931-133.313,0-128.5,0-105.323c0,23.199,27.989,56.001,69.985,56.001      C97.041-49.322,111.98-82.124,111.98-105.323" fill="#77b255"/><path d="M409.6-204.515c0-12.561-40.027,8.431-56.889,0c-22.756-11.378-22.756,10.194-22.756,22.756      s15.28,11.378,34.133,11.378C382.942-170.382,409.6-191.954,409.6-204.515" fill="#77b255"/><path d="M190.18-255.772c0-31.414-14.552-32.506-32.506-32.506c-17.965,0-32.518,1.092-32.518,32.506      c0,5.564,0.967,11.708,2.662,18.057c7.862,29.468,31.334,63.215,46.103,63.215C191.875-174.5,190.18-224.358,190.18-255.772" fill="#77b255"/><path d="M287.698-255.772c0-31.414,14.541-32.506,32.495-32.506c17.966,0,32.518,1.092,32.518,32.506      c0,5.564-0.967,11.708-2.674,18.057c-7.851,29.468-31.323,63.215-46.091,63.215C285.992-174.5,287.698-224.358,287.698-255.772" fill="#77b255"/></g><path d="M364.089-185.878c0-45.511-58.584-45.511-130.844-45.511s-130.844,0-130.844,45.511     c0,75.401,58.584,136.533,130.844,136.533S364.089-110.478,364.089-185.878" fill="#3e721d"/><path d="M68.267-83.478c0-6.292-5.097-11.378-11.378-11.378S45.511-89.77,45.511-83.478     c0,6.292,5.097,11.378,11.378,11.378S68.267-77.186,68.267-83.478" fill="#292f33"/><g><path d="M269.278-164.26c0-40.858-16.134-44.373-36.033-44.373s-36.033,3.516-36.033,44.373      c0,40.846,16.134,92.16,36.033,92.16S269.278-123.414,269.278-164.26" fill="#5c913b"/><path d="M341.333-151.745c9.91-39.617-8.92-45.511-28.82-45.511c-19.9,0-28.82-7.851-28.82,32.996      s-12.709,73.956,7.191,73.956C310.784-90.305,329.956-106.234,341.333-151.745" fill="#5c913b"/><path d="M182.841-164.26c0-40.858-8.932-32.996-28.831-32.996s-38.719,5.882-28.82,45.511      c11.378,45.511,36.989,61.44,56.889,61.44C201.99-90.305,182.841-123.414,182.841-164.26" fill="#5c913b"/></g></g></defs><g fi:class="KUsePattern" transform="matrix(1 0 0 1 20 20)" opacity="1"><pattern id="pattern_UNKNOWN" width="350" height="350" patternUnits="userSpaceOnUse"><use xlink:href="#UNKNOWN" x="-350" y="-350"/><use xlink:href="#UNKNOWN" x="0" y="-350"/><use xlink:href="#UNKNOWN" x="350" y="-350"/><use xlink:href="#UNKNOWN" x="-350" y="0"/><use xlink:href="#UNKNOWN" x="0" y="0"/><use xlink:href="#UNKNOWN" x="350" y="0"/><use xlink:href="#UNKNOWN" x="-350" y="350"/><use xlink:href="#UNKNOWN" x="0" y="350"/><use xlink:href="#UNKNOWN" x="350" y="350"/></pattern><rect x="0" y="0" width="100%" height="100%" fill="url(#pattern_UNKNOWN)"/></g><g fi:class="KUsePattern" transform="matrix(1 0 0 1 20 20)" opacity="1"><pattern id="pattern_UNKNOWN" width="350" height="350" patternUnits="userSpaceOnUse"><use xlink:href="#UNKNOWN" x="-350" y="-350"/><use xlink:href="#UNKNOWN" x="0" y="-350"/><use xlink:href="#UNKNOWN" x="350" y="-350"/><use xlink:href="#UNKNOWN" x="-350" y="0"/><use xlink:href="#UNKNOWN" x="0" y="0"/><use xlink:href="#UNKNOWN" x="350" y="0"/><use xlink:href="#UNKNOWN" x="-350" y="350"/><use xlink:href="#UNKNOWN" x="0" y="350"/><use xlink:href="#UNKNOWN" x="350" y="350"/></pattern><rect x="0" y="0" width="100%" height="100%" fill="url(#pattern_UNKNOWN)"/></g><g fi:class="KUsePattern" transform="matrix(1 0 0 1 20 20)" opacity="1"><pattern id="pattern_UNKNOWN" width="350" height="350" patternUnits="userSpaceOnUse"><use xlink:href="#UNKNOWN" x="-350" y="-350"/><use xlink:href="#UNKNOWN" x="0" y="-350"/><use xlink:href="#UNKNOWN" x="350" y="-350"/><use xlink:href="#UNKNOWN" x="-350" y="0"/><use xlink:href="#UNKNOWN" x="0" y="0"/><use xlink:href="#UNKNOWN" x="350" y="0"/><use xlink:href="#UNKNOWN" x="-350" y="350"/><use xlink:href="#UNKNOWN" x="0" y="350"/><use xlink:href="#UNKNOWN" x="350" y="350"/></pattern><rect x="0" y="0" width="100%" height="100%" fill="url(#pattern_UNKNOWN)"/></g><g fi:class="KUsePattern" transform="matrix(1 0 0 1 20 20)" opacity="1"><pattern id="pattern_UNKNOWN" width="350" height="350" patternUnits="userSpaceOnUse"><use xlink:href="#UNKNOWN" x="-350" y="-350"/><use xlink:href="#UNKNOWN" x="0" y="-350"/><use xlink:href="#UNKNOWN" x="350" y="-350"/><use xlink:href="#UNKNOWN" x="-350" y="0"/><use xlink:href="#UNKNOWN" x="0" y="0"/><use xlink:href="#UNKNOWN" x="350" y="0"/><use xlink:href="#UNKNOWN" x="-350" y="350"/><use xlink:href="#UNKNOWN" x="0" y="350"/><use xlink:href="#UNKNOWN" x="350" y="350"/></pattern><rect x="0" y="0" width="100%" height="100%" fill="url(#pattern_UNKNOWN)"/></g><g fi:class="KUsePattern" transform="matrix(1 0 0 1 20 20)"><pattern id="pattern_UNKNOWN" width="350" height="350" patternUnits="userSpaceOnUse"><use xlink:href="#UNKNOWN" x="-350" y="-350"/><use xlink:href="#UNKNOWN" x="0" y="-350"/><use xlink:href="#UNKNOWN" x="350" y="-350"/><use xlink:href="#UNKNOWN" x="-350" y="0"/><use xlink:href="#UNKNOWN" x="0" y="0"/><use xlink:href="#UNKNOWN" x="350" y="0"/><use xlink:href="#UNKNOWN" x="-350" y="350"/><use xlink:href="#UNKNOWN" x="0" y="350"/><use xlink:href="#UNKNOWN" x="350" y="350"/></pattern><rect x="0" y="0" width="100%" height="100%" fill="url(#pattern_UNKNOWN)"/></g><g fi:class="KUsePattern"><pattern id="pattern_L1_4" width="350" height="350" patternUnits="userSpaceOnUse"><use xlink:href="#L1_4" x="-350" y="-350"/><use xlink:href="#L1_4" x="0" y="-350"/><use xlink:href="#L1_4" x="350" y="-350"/><use xlink:href="#L1_4" x="-350" y="0"/><use xlink:href="#L1_4" x="0" y="0"/><use xlink:href="#L1_4" x="350" y="0"/><use xlink:href="#L1_4" x="-350" y="350"/><use xlink:href="#L1_4" x="0" y="350"/><use xlink:href="#L1_4" x="350" y="350"/></pattern><rect x="0" y="0" width="100%" height="100%" fill="url(#pattern_L1_4)"/></g><g fi:class="KUsePattern"><pattern id="pattern_L1_5" width="350" height="350" patternUnits="userSpaceOnUse"><use xlink:href="#L1_5" x="-350" y="-350"/><use xlink:href="#L1_5" x="0" y="-350"/><use xlink:href="#L1_5" x="350" y="-350"/><use xlink:href="#L1_5" x="-350" y="0"/><use xlink:href="#L1_5" x="0" y="0"/><use xlink:href="#L1_5" x="350" y="0"/><use xlink:href="#L1_5" x="-350" y="350"/><use xlink:href="#L1_5" x="0" y="350"/><use xlink:href="#L1_5" x="350" y="350"/></pattern><rect x="0" y="0" width="100%" height="100%" fill="url(#pattern_L1_5)"/></g><g fi:class="KUsePattern"><pattern id="pattern_L1_6" width="350" height="350" patternUnits="userSpaceOnUse"><use xlink:href="#L1_6" x="-350" y="-350"/><use xlink:href="#L1_6" x="0" y="-350"/><use xlink:href="#L1_6" x="350" y="-350"/><use xlink:href="#L1_6" x="-350" y="0"/><use xlink:href="#L1_6" x="0" y="0"/><use xlink:href="#L1_6" x="350" y="0"/><use xlink:href="#L1_6" x="-350" y="350"/><use xlink:href="#L1_6" x="0" y="350"/><use xlink:href="#L1_6" x="350" y="350"/></pattern><rect x="0" y="0" width="100%" height="100%" fill="url(#pattern_L1_6)"/></g><g fi:class="KUsePattern"><pattern id="pattern_L1_7" width="350" height="350" patternUnits="userSpaceOnUse"><use xlink:href="#L1_7" x="-350" y="-350"/><use xlink:href="#L1_7" x="0" y="-350"/><use xlink:href="#L1_7" x="350" y="-350"/><use xlink:href="#L1_7" x="-350" y="0"/><use xlink:href="#L1_7" x="0" y="0"/><use xlink:href="#L1_7" x="350" y="0"/><use xlink:href="#L1_7" x="-350" y="350"/><use xlink:href="#L1_7" x="0" y="350"/><use xlink:href="#L1_7" x="350" y="350"/></pattern><rect x="0" y="0" width="100%" height="100%" fill="url(#pattern_L1_7)"/></g></svg>